<?xml version="1.0" encoding="utf-8"?>
<!-- Generator: Adobe Illustrator 23.0.1, SVG Export Plug-In . SVG Version: 6.00 Build 0)  -->
<svg version="1.1" id="Capa_1" xmlns="http://www.w3.org/2000/svg" xmlns:xlink="http://www.w3.org/1999/xlink" x="0px" y="0px"
	 viewBox="0 0 636 636" style="enable-background:new 0 0 636 636;" xml:space="preserve">
<style type="text/css">
	.st0{fill:#EE7274;}
	.st1{fill:#552E2A;}
</style>
<circle class="st0" cx="318" cy="318" r="318"/>
<path class="st1" d="M232,242.5H126c-6.6,0-12-5.4-12-12v-106c0-6.6,5.4-12,12-12h106c6.6,0,12,5.4,12,12v106
	C244,237.1,238.6,242.5,232,242.5z"/>
<path class="st1" d="M510,242.5H404c-6.6,0-12-5.4-12-12v-106c0-6.6,5.4-12,12-12h106c6.6,0,12,5.4,12,12v106
	C522,237.1,516.6,242.5,510,242.5z"/>
<path class="st1" d="M371,382.5H265c-6.6,0-12-5.4-12-12v-106c0-6.6,5.4-12,12-12h106c6.6,0,12,5.4,12,12v106
	C383,377.1,377.6,382.5,371,382.5z"/>
<path class="st1" d="M232,522.5H126c-6.6,0-12-5.4-12-12v-106c0-6.6,5.4-12,12-12h106c6.6,0,12,5.4,12,12v106
	C244,517.1,238.6,522.5,232,522.5z"/>
<path class="st1" d="M510,522.5H404c-6.6,0-12-5.4-12-12v-106c0-6.6,5.4-12,12-12h106c6.6,0,12,5.4,12,12v106
	C522,517.1,516.6,522.5,510,522.5z"/>
</svg>
