<?xml version="1.0" encoding="utf-8"?>
<!-- Generator: Adobe Illustrator 23.0.1, SVG Export Plug-In . SVG Version: 6.00 Build 0)  -->
<svg version="1.1" id="Capa_1" xmlns="http://www.w3.org/2000/svg" xmlns:xlink="http://www.w3.org/1999/xlink" x="0px" y="0px"
	 viewBox="0 0 200 50" style="enable-background:new 0 0 200 50;" xml:space="preserve">
<style type="text/css">
	.st0{fill:#FFFFFF;}
	.st1{opacity:0.5;fill:#CDCBCB;}
	.st2{fill:url(#SVGID_1_);}
	.st3{fill:url(#SVGID_2_);}
	.st4{clip-path:url(#SVGID_4_);}
	.st5{fill:url(#SVGID_5_);}
	.st6{fill:#D9DD59;}
	.st7{opacity:0.5;clip-path:url(#SVGID_4_);fill:#CDCBCB;}
	.st8{opacity:0.8;clip-path:url(#SVGID_4_);fill:url(#SVGID_6_);}
	.st9{opacity:0.5;clip-path:url(#SVGID_4_);}
	.st10{fill:#CDCBCB;}
	.st11{fill:#EE7376;}
	.st12{fill:#99A4CE;}
	.st13{fill:#99C9CE;}
	.st14{fill:#FABB5C;}
	.st15{fill:#F8EE7C;}
	.st16{fill:url(#SVGID_7_);}
	.st17{opacity:0.5;}
	.st18{fill:#2D1C2F;}
	.st19{fill:url(#SVGID_8_);}
	.st20{fill:url(#SVGID_9_);}
</style>
<g>
	<path class="st0" d="M51.3,29.5l-5,5.1V41h-2.6V16.4h2.6v14.9l14.4-14.9h3L53.1,27.6L64.5,41h-3.1L51.3,29.5z"/>
	<path class="st0" d="M101.7,18.7H93v-2.2h19.9v2.2h-8.6V41h-2.6V18.7z"/>
	<path class="st0" d="M134.4,38.8V41h-17.4V16.4h16.9v2.2h-14.3v8.7h12.7v2.2h-12.7v9.1H134.4z"/>
	<path class="st0" d="M157.3,41l-5.6-7.9c-0.6,0.1-1.3,0.1-2,0.1h-6.6V41h-2.6V16.4h9.2c3.1,0,5.6,0.7,7.4,2.2
		c1.8,1.5,2.7,3.6,2.7,6.2c0,1.9-0.5,3.5-1.5,4.9c-1,1.3-2.4,2.3-4.2,2.9l6,8.4H157.3z M155.3,29.4c1.3-1.1,1.9-2.6,1.9-4.5
		c0-2-0.6-3.5-1.9-4.6c-1.3-1.1-3.1-1.6-5.6-1.6h-6.5V31h6.5C152.1,31,154,30.5,155.3,29.4z"/>
	<g>
		<ellipse class="st1" cx="20.9" cy="42.8" rx="17.2" ry="2.1"/>
		<g>
			<g>
				
					<linearGradient id="SVGID_1_" gradientUnits="userSpaceOnUse" x1="179.7099" y1="427.3673" x2="185.9995" y2="427.3673" gradientTransform="matrix(-0.5581 -0.8298 -0.8298 0.5581 487.8627 -63.0965)">
					<stop  offset="0" style="stop-color:#BDD581"/>
					<stop  offset="1" style="stop-color:#BBD68C"/>
				</linearGradient>
				<path class="st2" d="M32.6,18.9c1.2,0.8,2.1,2.1,2.4,3.6c0.1,0.4,0.1,0.9-0.1,1.2c-0.3,0.4-0.8,0.6-1.3,0.5s-0.9-0.4-1.3-0.7
					c0.7,0.5,1,1.4,0.7,2.2c-0.1,0.4-0.4,0.8-0.9,0.9c-0.6,0.1-1.1-0.3-1.5-0.8c0.2,0.5,0.2,1.3-0.3,1.6c-0.3,0.2-0.7,0.2-1,0.1
					s-0.6-0.4-0.9-0.6c-0.7-0.6-1.3-1.4-1.7-2.2"/>
			</g>
			<g>
				<path class="st0" d="M8.8,36.3c3.2-0.6,10.2,1,10.2,1s0.7,1.8-0.1,3.5c-0.1-0.2-5.1,1.2-8,1.5C10.9,40.2,10.2,38,8.8,36.3z"/>
				
					<linearGradient id="SVGID_2_" gradientUnits="userSpaceOnUse" x1="315.6205" y1="-287.4208" x2="316.1194" y2="-283.0555" gradientTransform="matrix(-0.9364 0.3508 0.3508 0.9364 404.7034 196.5125)">
					<stop  offset="0" style="stop-color:#99C9CE"/>
					<stop  offset="0.9956" style="stop-color:#98AACE"/>
				</linearGradient>
				<path class="st3" d="M7.8,36.6c0.3-0.2,0.6-0.3,1-0.4c1.4,1.7,2.1,3.9,2,6c-0.8,0.1-1.4,0.1-1.8,0C7.3,41.8,5.5,38.1,7.8,36.6z"
					/>
			</g>
			<g>
				<defs>
					<path id="SVGID_3_" d="M26.6,36.3c0,0,0.4-1.4,3.2-1.8c2.7-0.4,3.5,2.2,5.4,2s2.1-0.6,2.5-0.3c0.3,0.3-1.8,11.6-10.6,5.2
						C24.9,38,26.6,36.3,26.6,36.3z"/>
				</defs>
				<clipPath id="SVGID_4_">
					<use xlink:href="#SVGID_3_"  style="overflow:visible;"/>
				</clipPath>
				<g class="st4">
					
						<linearGradient id="SVGID_5_" gradientUnits="userSpaceOnUse" x1="632.8843" y1="-138.3415" x2="626.4404" y2="-135.4528" gradientTransform="matrix(-0.9938 0.1116 0.1116 0.9938 669.848 103.6909)">
						<stop  offset="0" style="stop-color:#BDD581"/>
						<stop  offset="1" style="stop-color:#BBD68C"/>
					</linearGradient>
					<path class="st5" d="M26.6,36.3c0,0,0.4-1.4,3.2-1.8c2.7-0.4,3.5,2.2,5.4,2s2.1-0.6,2.5-0.3c0.3,0.3-1.8,11.6-10.6,5.2
						C24.9,38,26.6,36.3,26.6,36.3z"/>
					<path class="st6" d="M32.9,38.5c1.1-0.2,2.2-0.4,3.2-0.9c0.4-0.2,0.9-0.5,1.2-0.8c0.1-0.1,0.2-0.2,0.2-0.2
						c0,0.2-0.1,0.5-0.1,0.8c-0.4,0.5-1,0.7-1.5,0.9c-1.1,0.4-2.3,0.5-3.4,0.9c-1.5,0.5-3.1,1.6-3.8,3.1c-0.5-0.3-1.1-0.6-1.7-1.1
						c-0.1-0.1-0.1-0.2-0.2-0.3c0.6-0.7,1.3-1.3,2.2-1.6C30.3,38.9,31.6,38.7,32.9,38.5z"/>
					<path class="st1" d="M38.1,35.8C38.1,35.8,38.1,35.8,38.1,35.8c0.1,0,0.1,0,0.2,0.1c0,0,0,0,0,0c-0.1-0.2-0.4,0.4-0.4,0.5
						c-0.1,0.1-0.1,0.2-0.2,0.3c0,0,0,0,0-0.1C37.8,36.3,38,36.1,38.1,35.8z"/>
					<path class="st1" d="M26.2,41.5c0.1-0.3,0.2-0.6,0.4-0.9c0.1,0.1,0.1,0.2,0.2,0.4c-0.1,0.2-0.3,0.4-0.4,0.6
						C26.3,41.7,26.1,41.6,26.2,41.5z"/>
					<path class="st1" d="M31.3,38.5c1.3-0.2,2.6-0.2,3.8-0.6c0.9-0.2,1.9-0.7,2.5-1.4c0,0,0,0,0,0.1c-0.1,0.1-0.2,0.2-0.2,0.2
						c-0.4,0.3-0.8,0.6-1.2,0.8c-1,0.5-2.1,0.7-3.2,0.9c-1.3,0.2-2.6,0.3-3.8,0.8c-0.9,0.4-1.6,0.9-2.2,1.6
						c-0.1-0.1-0.1-0.3-0.2-0.4C27.6,39.2,29.7,38.7,31.3,38.5z"/>
					<path class="st1" d="M28.6,43.1c0,0.1-0.2,0-0.2-0.1c0.1-0.2,0.2-0.5,0.3-0.7c0.1,0,0.2,0.1,0.3,0.1
						C28.9,42.7,28.7,42.9,28.6,43.1z"/>
					<path class="st1" d="M37.5,37.4c0.1-0.2,0.2-0.4,0.3-0.6c0,0,0-0.1,0.1-0.2c0.1-0.1,0-0.1,0.1-0.1c0,0,0,0,0,0
						c-0.2,0-0.3,0.5-0.4,0.6C37.6,37.3,37.5,37.4,37.5,37.4C37.5,37.5,37.5,37.4,37.5,37.4C37.5,37.4,37.5,37.4,37.5,37.4z"/>
					<path class="st1" d="M32.6,39.3c1.1-0.4,2.3-0.5,3.4-0.9c0.6-0.2,1.1-0.5,1.5-0.9c0,0,0,0,0,0c-0.1,0.1-0.1,0.1-0.2,0.2
						c-0.3,0.3-0.7,0.5-1,0.6c-1,0.5-2.1,0.7-3.1,1c-1,0.3-1.9,0.8-2.7,1.5c-0.6,0.5-1,1.1-1.5,1.7c-0.1,0-0.2-0.1-0.3-0.1
						C29.5,40.9,31,39.8,32.6,39.3z"/>
				</g>
				<path class="st7" d="M38,35.3c0.1,0.4-0.3,0.7-0.6,0.9c-0.5,0.3-1,0.6-1.5,0.7c-1.2,0.4-2.4,0.3-3.5,0c-1.3-0.3-2.6-0.9-4-0.8
					c-0.6,0-1.2,0.1-1.8,0.5c-0.5,0.3-0.9,0.8-1.2,1.3c-0.1,0.1-0.3,0.1-0.3-0.1c0.2-0.9,1.1-1.5,1.9-1.7c1.1-0.3,2.3-0.1,3.3,0.2
					c1.3,0.3,2.5,0.8,3.8,0.8c0.6,0,1.3-0.1,1.9-0.3C36.6,36.6,38.2,36,38,35.3C38,35.3,38,35.3,38,35.3L38,35.3z"/>
				<path class="st7" d="M37.2,38.3c-0.6,1.5-1.7,2.8-3,3.7c-1.5,1-3.2,1.5-5,1.5c-0.1,0-0.1-0.1,0-0.1c1.7-0.1,3.4-0.6,4.9-1.5
					C35.5,40.9,36.5,39.7,37.2,38.3C37.2,38.3,37.2,38.3,37.2,38.3L37.2,38.3z"/>
				<path class="st7" d="M37,35.8c-1.1,1.1-2.6,1-4,0.6c-1.7-0.5-3.3-1.4-5-1.6c-0.1,0-0.1-0.2,0-0.2c1.6-0.1,2.9,0.7,4.3,1.4
					C33.7,36.7,35.6,37.1,37,35.8C37,35.8,37,35.8,37,35.8L37,35.8z"/>
				
					<linearGradient id="SVGID_6_" gradientUnits="userSpaceOnUse" x1="626.9689" y1="-132.7893" x2="625.4291" y2="-136.6664" gradientTransform="matrix(-0.9938 0.1116 0.1116 0.9938 669.848 103.6909)">
					<stop  offset="0" style="stop-color:#BDD581;stop-opacity:0"/>
					<stop  offset="1" style="stop-color:#BBD68C"/>
				</linearGradient>
				<path class="st8" d="M29.8,42.6c0.2-0.1,0.3-0.2,0.5-0.3c0.4-0.2,0.8-0.4,1.1-0.7c0.6-0.5,1-1.2,1.3-1.9
					c0.1-0.4,0.2-0.9,0.2-1.3c0.1-0.5,0.1-1,0-1.5c-0.1-0.5-0.2-0.9-0.4-1.4c0,0,0,0,0,0c0.2,0.1,0.3,0.2,0.5,0.4
					c0.2,0.4,0.4,0.8,0.6,1.3c0.2,0.5,0.5,1,0.6,1.6c0.1,0.5,0.1,1.1,0,1.7c-0.2,1-0.7,1.8-1.5,2.5C31.9,43.1,31,43,29.8,42.6z"/>
				<g class="st9">
					<path class="st10" d="M32.1,40.9c1.8-0.2,3.5-0.9,4.9-1.9c-1.2,3-4.1,6.6-9.9,2.3c-0.4-0.5-0.6-1.1-0.8-1.5
						C28,40.8,30.1,41.2,32.1,40.9z"/>
				</g>
			</g>
			<g>
				<path class="st11" d="M30.1,14.1c0.2-0.5,0.3-1.1,0.3-1.7c0-0.4-0.1-0.8-0.4-1c-0.1-0.1-0.2-0.1-0.3-0.2c-1,0.8-2.1,2.6-1.9,4.7
					c0.1,1.3,0.5,1.8,1,1.9c0.2-0.8,0.4-1.5,0.7-2.2C29.7,15.1,30,14.6,30.1,14.1z"/>
				<path class="st0" d="M31.1,10.8c-0.3-0.2-0.8,0-1.4,0.5c0.1,0,0.2,0.1,0.3,0.2c0.2,0.2,0.3,0.6,0.4,1c0,0.6-0.1,1.1-0.3,1.7
					c-0.2,0.5-0.4,1-0.6,1.5c-0.3,0.7-0.5,1.4-0.7,2.2c0.7,0.2,1.6-0.4,1.6-0.4s0.1-1.9,0.5-3.4C31.3,12.5,31.9,11.4,31.1,10.8z"/>
			</g>
			<g>
				<path class="st12" d="M31.4,17.5c0-0.1-0.1-0.2-0.2-0.3c-0.2-0.4-0.6-0.7-1-0.9C29.8,16,29.3,16,28.9,16c-0.1,0-0.2,0-0.4,0.1
					c-0.2,0.3-0.4,0.6-0.4,0.7c0.2,0.5,0.6,1,1.2,1.3c0.6,0.3,1.2,0.3,1.7,0.2C31.1,18.1,31.2,17.8,31.4,17.5z"/>
				<path class="st13" d="M31.4,17.4C31.4,17.4,31.4,17.4,31.4,17.4c0-0.1,0.1-0.2,0.1-0.3c0.1-0.2,0.2-0.5,0.3-0.8c0,0,0,0,0,0
					c0-0.1,0.1-0.2,0.1-0.3c0,0,0-0.1-0.1-0.1c-0.2-0.4-0.6-0.7-1-0.9c-0.4-0.2-0.9-0.3-1.3-0.2c0,0-0.1,0-0.1,0
					c-0.1,0.1-0.1,0.2-0.2,0.2c0,0,0,0,0,0c-0.2,0.2-0.3,0.5-0.4,0.7c-0.1,0.1-0.1,0.2-0.2,0.3c0,0,0,0,0,0c0,0,0,0,0,0
					c0.1,0,0.2-0.1,0.4-0.1c0.4,0,0.9,0,1.3,0.2c0.4,0.2,0.8,0.5,1,0.9C31.3,17.3,31.3,17.4,31.4,17.4
					C31.4,17.5,31.4,17.4,31.4,17.4z"/>
				<path class="st11" d="M33.1,11.8c0-0.1,0-0.2,0-0.3c0-0.4,0-0.7-0.1-0.8c-0.2-0.1-0.4,0.1-0.7,0.4c-0.1,0.1-0.1,0.1-0.2,0.2
					c0.2,0,0.4,0.1,0.6,0.2C32.8,11.5,33,11.7,33.1,11.8z"/>
				<path class="st14" d="M32.8,13.3c0-0.2,0.1-0.3,0.1-0.4c0.1-0.4,0.2-0.7,0.2-1c-0.1-0.1-0.3-0.2-0.5-0.3
					c-0.2-0.1-0.4-0.2-0.6-0.2c-0.2,0.2-0.4,0.5-0.7,0.8c-0.1,0.1-0.2,0.2-0.3,0.4c0.3,0,0.6,0.1,0.9,0.2
					C32.3,12.8,32.6,13,32.8,13.3z"/>
				<path class="st15" d="M30.2,13.6c0.4,0,0.8,0.1,1.2,0.2c0.4,0.2,0.7,0.5,0.9,0.8c0.1-0.2,0.1-0.4,0.2-0.6
					c0.1-0.3,0.2-0.5,0.2-0.8c-0.2-0.2-0.5-0.4-0.8-0.6c-0.3-0.1-0.6-0.2-0.9-0.2c-0.2,0.2-0.3,0.4-0.5,0.7
					C30.5,13.2,30.3,13.4,30.2,13.6z"/>
				<path class="st6" d="M31.9,15.9c0.1-0.2,0.2-0.5,0.2-0.7c0.1-0.2,0.1-0.3,0.2-0.5c0,0,0-0.1,0-0.1c-0.2-0.3-0.5-0.6-0.9-0.8
					c-0.4-0.2-0.8-0.3-1.2-0.2c0,0,0,0.1-0.1,0.1c-0.1,0.1-0.2,0.3-0.3,0.4c-0.1,0.2-0.3,0.4-0.4,0.6c0,0-0.1,0.1-0.1,0.1
					c0,0,0.1,0,0.1,0c0.4,0,0.9,0,1.3,0.2c0.4,0.2,0.8,0.5,1,0.9c0,0,0,0.1,0.1,0.1C31.9,16,31.9,16,31.9,15.9z"/>
			</g>
			<g>
				<path class="st6" d="M33.3,16c0.4-0.5,0.7-1,0.9-1.6c0.1-0.4,0.2-0.9,0-1.2c-0.1-0.1-0.2-0.2-0.3-0.3c-1.4,0.5-3.1,2-3.8,4.2
					c-0.4,1.4-0.1,2,0.3,2.4c0.5-0.7,1-1.4,1.6-2.1C32.5,16.9,32.9,16.5,33.3,16z"/>
				<path class="st0" d="M35.6,12.9c-0.2-0.3-0.8-0.3-1.6,0c0.1,0.1,0.2,0.2,0.3,0.3c0.2,0.3,0.1,0.8,0,1.2C34,15,33.7,15.5,33.3,16
					c-0.4,0.5-0.8,0.9-1.2,1.4c-0.6,0.6-1.1,1.3-1.6,2.1c0.7,0.5,1.9,0.2,1.9,0.2s0.8-1.9,1.8-3.4S36.2,13.8,35.6,12.9z"/>
			</g>
			
				<linearGradient id="SVGID_7_" gradientUnits="userSpaceOnUse" x1="-582.291" y1="213.9714" x2="-578.712" y2="228.1958" gradientTransform="matrix(0.8939 0.4483 -0.4483 0.8939 635.5605 80.5275)">
				<stop  offset="0" style="stop-color:#99C9CE"/>
				<stop  offset="0.9956" style="stop-color:#98AACE"/>
			</linearGradient>
			<path class="st16" d="M24,18.1c0.8-2.4,0.7-5-0.1-7.3c-1.6-1.1-3.1-1.9-4.1-2c-3-0.2-11.3,3.2-7,12.3c0.8,1.5,3.3,2.5,6.3,3.1
				C21.3,22.8,23.2,20.6,24,18.1z"/>
			<path class="st0" d="M32.2,18.8c-1.2-1.9-5-5.7-8.4-8c0.8,2.3,0.9,4.9,0.1,7.3c-0.8,2.6-2.7,4.8-4.9,6.1
				c4.6,0.9,10.2,0.7,11.3-0.1C32.1,22.9,33.4,20.7,32.2,18.8z"/>
			<g class="st17">
				<path class="st10" d="M17.2,21.4c-2.7-1.3-4.7-3.8-5.5-6.6c-0.4,1.7-0.1,3.8,1.1,6.3c0.8,1.5,3.3,2.5,6.3,3.1
					c4.6,0.9,10.2,0.7,11.3-0.1c0.6-0.4,1.1-0.9,1.5-1.4c-2.8,0.3-5.7,0.3-8.5,0C21.2,22.6,19.1,22.3,17.2,21.4z"/>
			</g>
			<ellipse transform="matrix(0.7924 -0.61 0.61 0.7924 -3.1178 15.3524)" class="st1" cx="21" cy="12.3" rx="1.2" ry="2"/>
			<ellipse transform="matrix(0.3147 -0.9492 0.9492 0.3147 3.2521 38.8805)" class="st18" cx="28.6" cy="17.2" rx="1.2" ry="0.6"/>
			<path class="st0" d="M27.4,24.8l-0.8,2.4c0,0,4.1,13.3-0.7,14.6c-4.8,1.4-8.7-0.7-9.2-3.5c-0.5-2.8,4.8-11.2,7.2-11.6l0.7-2.8"/>
			<g>
				
					<linearGradient id="SVGID_8_" gradientUnits="userSpaceOnUse" x1="110.9403" y1="499.3637" x2="110.5571" y2="504.7764" gradientTransform="matrix(-0.3947 -0.9188 -0.9188 0.3947 534.082 -55.3487)">
					<stop  offset="0" style="stop-color:#99C9CE"/>
					<stop  offset="0.9956" style="stop-color:#98AACE"/>
				</linearGradient>
				<path class="st19" d="M28.3,39.9c0.8-0.5,1.6-1.1,2.1-1.9c0.3,0.7,0.6,1.4,0.8,2.1c0.4,1.3-0.4,3.3-2.2,2.9
					c-1.6-0.4-2.5-1.2-3.1-2.3C26.8,40.6,27.6,40.3,28.3,39.9z"/>
				<path class="st0" d="M27.4,30c0.5,1.8,1.2,3.7,1.9,5.4c0.3,0.9,0.8,1.7,1.1,2.6c-0.5,0.8-1.3,1.5-2.1,1.9
					c-0.7,0.4-1.5,0.6-2.3,0.7c-0.4-0.8-0.7-1.7-1-2.7c-0.6-2.3-1.1-4.6-1.4-6.9C23.2,28.9,26.7,27.8,27.4,30z"/>
			</g>
			<g class="st17">
				<path class="st10" d="M22.9,31.1c-0.9,0-1.8-0.5-2.5-1.1c1.3-1.8,2.6-3.1,3.5-3.3l0.7-2.8l2.9,0.9l-0.8,2.4c0,0,0.2,0.5,0.4,1.4
					c-0.3,0.4-0.5,0.7-0.9,1C25.3,30.6,24.1,31.2,22.9,31.1z"/>
			</g>
			<g>
				<path class="st0" d="M13.2,37.8c3.2-0.6,10.2,1,10.2,1s0.7,1.8-0.1,3.5c-0.1-0.2-5.1,1.2-8,1.5C15.3,41.7,14.6,39.5,13.2,37.8z"
					/>
				
					<linearGradient id="SVGID_9_" gradientUnits="userSpaceOnUse" x1="312.0307" y1="-284.4704" x2="312.5296" y2="-280.105" gradientTransform="matrix(-0.9364 0.3508 0.3508 0.9364 404.7034 196.5125)">
					<stop  offset="0" style="stop-color:#99C9CE"/>
					<stop  offset="0.9956" style="stop-color:#98AACE"/>
				</linearGradient>
				<path class="st20" d="M12.2,38.1c0.3-0.2,0.6-0.3,1-0.4c1.4,1.7,2.1,3.9,2,6c-0.8,0.1-1.4,0.1-1.8,0
					C11.7,43.3,9.9,39.6,12.2,38.1z"/>
			</g>
		</g>
		<g>
			<g>
				<g>
					<path class="st18" d="M14.4,10.9c0.2-1.1,0.3-2.2,0.2-3.3c-0.1-0.8-0.2-1.7-0.8-2.3c-0.5-0.6-1.6-0.9-2.2-0.4
						c-0.3,0.3-0.5,0.7-0.6,1.1c-0.1,1.1,0.4,2.2,1.4,2.7c-0.6-0.5-1.6-0.5-2.3,0C9.6,9.3,9.5,10.3,9.9,11c0.5,0.6,1.3,0.9,2.1,1
						c0.4,0.1,0.7,0.1,1.1,0s0.7-0.3,0.8-0.6"/>
				</g>
				<path class="st18" d="M14.3,11.1c0.3-1.1,1.2-2.2,2.2-2.6c0,0,0.1,0.1,0,0.1c-0.5,0.3-0.9,0.7-1.3,1.1
					C14.9,10.1,14.6,10.7,14.3,11.1C14.3,11.1,14.3,11.1,14.3,11.1L14.3,11.1z"/>
				<path class="st18" d="M14.3,10.9c0.5-0.7,1.2-1.5,2.1-1.8c0.1,0,0.1,0.1,0,0.1C15.6,9.5,15,10.3,14.3,10.9
					C14.3,11,14.3,10.9,14.3,10.9L14.3,10.9z"/>
				<path class="st18" d="M14.3,11c0,0.5-0.2,1.2-0.5,1.7c-0.3,0.5-1.1-0.1-0.7-0.5c0.2-0.2,0.4-0.4,0.6-0.6
					C13.9,11.4,14.1,11.2,14.3,11C14.2,10.9,14.3,10.9,14.3,11L14.3,11z"/>
			</g>
			<g>
				<g>
					<path class="st15" d="M13.7,9.1c0,0.3,0.4-0.3,0.4-0.3c0.2-0.8-0.1-2.3-0.7-2.9c-0.7-0.8-1.7,0-1.3,0.9c0.2,0.5,0.6,1,0.8,1.5
						c0.1,0.2,0.2,0.5,0.4,0.7C13.4,8.9,13.4,9,13.5,9C13.6,9.1,13.7,9.1,13.7,9.1C13.7,9,13.7,9,13.7,9.1L13.7,9.1z"/>
				</g>
			</g>
			<g>
				<g>
					<path class="st15" d="M12.5,8.1c-0.1-0.3-0.1-0.5-0.4-0.7c-0.2-0.1-0.3,0.1-0.2,0.2C12,7.9,12.2,8,12.4,8.1
						C12.4,8.2,12.5,8.1,12.5,8.1L12.5,8.1z"/>
				</g>
			</g>
			<g>
				<g>
					<path class="st15" d="M13.3,10.4C13,10,12.7,9.3,12.2,9.1c-0.3-0.1-0.7-0.1-0.9,0.2c-0.2,0.3-0.1,0.7,0.2,0.9
						c0.5,0.2,1.1,0.3,1.7,0.4C13.3,10.5,13.3,10.5,13.3,10.4L13.3,10.4z"/>
				</g>
			</g>
			<g>
				<g>
					<path class="st15" d="M12.9,11c-0.5-0.2-1.1-0.6-1.7-0.3c-0.1,0-0.1,0.2-0.1,0.3c0.3,0.6,1.2,0.4,1.7,0.2
						C12.9,11.1,12.9,11.1,12.9,11L12.9,11z"/>
				</g>
			</g>
			<g>
				<g>
					<path class="st15" d="M10.7,10.2c0.2,0,0.2-0.3,0-0.3C10.5,9.9,10.5,10.2,10.7,10.2L10.7,10.2z"/>
				</g>
			</g>
		</g>
		<g>
			<g>
				<path class="st11" d="M29.5,19.4c0.1,0.3,0.2,0.6,0.3,0.8c0,0.1,0.2,0,0.1-0.1c-0.1-0.3-0.2-0.6-0.4-0.8
					C29.6,19.3,29.5,19.3,29.5,19.4L29.5,19.4z"/>
			</g>
		</g>
		<g>
			<g>
				<path class="st11" d="M28.7,19.2c0.1,0.3,0.2,0.7,0.4,0.9c0.1,0.1,0.2,0,0.2-0.1c-0.1-0.3-0.3-0.6-0.5-0.9
					C28.7,19.1,28.6,19.2,28.7,19.2L28.7,19.2z"/>
			</g>
		</g>
		<g>
			<g>
				<path class="st11" d="M28.1,19.1c0,0.3,0,0.6,0.2,0.8c0.1,0.1,0.2,0,0.2-0.1c-0.1-0.2-0.2-0.5-0.3-0.7
					C28.1,19.1,28.1,19.1,28.1,19.1L28.1,19.1z"/>
			</g>
		</g>
		<g class="st17">
			<g>
				<path class="st10" d="M26,40.6c-1.1-2.1-1.3-4.3-1.6-6.6c0-0.1-0.2-0.1-0.2,0C24.4,36.3,24.8,38.6,26,40.6
					C26,40.7,26.1,40.7,26,40.6L26,40.6z"/>
			</g>
		</g>
		<g class="st17">
			<g>
				<path class="st10" d="M13.2,37.8c2.9-0.6,5.6-0.4,8.5-0.1c0.1,0,0.1-0.1,0-0.1C18.9,37.1,16,36.9,13.2,37.8
					C13.2,37.8,13.2,37.8,13.2,37.8L13.2,37.8z"/>
			</g>
		</g>
	</g>
	<g>
		<path class="st0" d="M89.7,22.3c-1.1-1.9-2.7-3.4-4.6-4.5c-1.8-1-3.9-1.5-6.1-1.6v2.3c1.8,0.1,3.4,0.5,4.8,1.3
			c1.6,0.9,2.8,2.1,3.7,3.7c0.9,1.6,1.3,3.3,1.3,5.2c0,1.9-0.4,3.7-1.3,5.2c-0.9,1.6-2.1,2.8-3.7,3.7c-1.4,0.8-3.1,1.2-4.8,1.3v2.3
			c2.3-0.1,4.3-0.6,6.1-1.6c2-1.1,3.5-2.6,4.6-4.5c1.1-1.9,1.7-4,1.7-6.4C91.4,26.4,90.9,24.2,89.7,22.3z"/>
		<path class="st0" d="M76.5,38.7c-1.2-0.2-2.3-0.6-3.3-1.2c-1.6-0.9-2.8-2.1-3.7-3.7c-0.9-1.6-1.4-3.3-1.4-5.2
			c0-1.9,0.5-3.7,1.4-5.2c0.9-1.6,2.1-2.8,3.7-3.7c1-0.6,2.1-1,3.3-1.2v-2.4c-1.7,0.2-3.2,0.7-4.6,1.5c-2,1.1-3.5,2.6-4.6,4.5
			c-1.1,1.9-1.7,4-1.7,6.4c0,2.4,0.6,4.5,1.7,6.4c1.1,1.9,2.7,3.4,4.6,4.5c1.4,0.8,3,1.3,4.6,1.5V38.7z"/>
	</g>
	<g>
		<path class="st0" d="M166.6,36.7l1.8-1.8c-0.2-0.3-0.5-0.7-0.7-1c-0.9-1.6-1.4-3.3-1.4-5.2c0-1.9,0.5-3.7,1.4-5.2
			c0.9-1.6,2.1-2.8,3.7-3.7c1.6-0.9,3.3-1.3,5.3-1.3c1.9,0,3.7,0.4,5.3,1.3c0.3,0.2,0.6,0.4,0.9,0.6l1.7-1.7
			c-0.4-0.3-0.9-0.6-1.4-0.9c-2-1.1-4.1-1.6-6.6-1.6c-2.4,0-4.6,0.5-6.6,1.6c-2,1.1-3.5,2.6-4.6,4.5c-1.1,1.9-1.7,4-1.7,6.4
			c0,2.4,0.6,4.5,1.7,6.4C165.8,35.7,166.1,36.2,166.6,36.7z"/>
		<path class="st0" d="M186.4,20.3l-1.8,1.8c0.4,0.4,0.7,0.9,1,1.4c0.9,1.6,1.3,3.3,1.3,5.2c0,1.9-0.4,3.7-1.3,5.2
			c-0.9,1.6-2.1,2.8-3.7,3.7c-1.6,0.9-3.3,1.3-5.3,1.3c-1.9,0-3.7-0.4-5.3-1.3c-0.5-0.3-0.9-0.6-1.3-0.9l-1.7,1.7
			c0.5,0.4,1.1,0.8,1.7,1.1c2,1.1,4.2,1.6,6.6,1.6c2.4,0,4.6-0.5,6.6-1.6c2-1.1,3.5-2.6,4.6-4.5c1.1-1.9,1.7-4,1.7-6.4
			c0-2.4-0.6-4.5-1.7-6.4C187.5,21.6,187,20.9,186.4,20.3z"/>
	</g>
</g>
</svg>
