<?xml version="1.0" encoding="utf-8"?>
<!-- Generator: Adobe Illustrator 23.0.1, SVG Export Plug-In . SVG Version: 6.00 Build 0)  -->
<svg version="1.1" id="Capa_1" xmlns="http://www.w3.org/2000/svg" xmlns:xlink="http://www.w3.org/1999/xlink" x="0px" y="0px"
	 viewBox="0 0 500 300" style="enable-background:new 0 0 500 300;" xml:space="preserve">
<style type="text/css">
	.st0{fill:#FFFFFF;}
	.st1{fill:url(#SVGID_1_);}
	.st2{clip-path:url(#SVGID_3_);}
	.st3{fill:url(#SVGID_4_);}
	.st4{fill:#DDFF61;}
	.st5{opacity:0.5;fill:#CCCCCC;}
	.st6{opacity:0.5;clip-path:url(#SVGID_3_);fill:#CCCCCC;}
	.st7{opacity:0.8;clip-path:url(#SVGID_3_);fill:url(#SVGID_5_);}
	.st8{opacity:0.5;clip-path:url(#SVGID_3_);}
	.st9{fill:#CCCCCC;}
	.st10{opacity:0.5;}
	.st11{fill:url(#SVGID_6_);}
	.st12{fill:#99A5CF;}
	.st13{fill:#99CACF;}
	.st14{fill:#FF7373;}
	.st15{fill:#FFBC5A;}
	.st16{fill:#FFFB76;}
	.st17{fill:url(#SVGID_7_);}
	.st18{fill:url(#SVGID_8_);}
	.st19{fill:#2E1E30;}
	.st20{opacity:0.3;fill:#FFFFFF;}
	.st21{font-family:'Baloo';}
	.st22{font-size:46.7839px;}
	.st23{font-size:61.8094px;}
	.st24{font-size:81.6939px;}
</style>
<g>
	<g>
		<g>
			<path class="st0" d="M407.2,235.5c-17.4-1.2-60.5-2-60.5-2l-26.8,36.3c9.4,0,47-0.9,71.8-2.9c1.8-2,3.5-4.3,4.9-6.5
				C401.6,252.7,405.2,244.3,407.2,235.5z"/>
			<linearGradient id="SVGID_1_" gradientUnits="userSpaceOnUse" x1="417.2293" y1="214.1496" x2="398.2901" y2="284.2248">
				<stop  offset="0" style="stop-color:#99CACF"/>
				<stop  offset="0.9956" style="stop-color:#99ABCF"/>
			</linearGradient>
			<path class="st1" d="M414.3,236.3c-0.6-0.3-3.2-0.6-7-0.8c-2.1,8.8-5.6,17.2-10.5,24.8c-1.5,2.3-3.1,4.5-4.9,6.5
				c11.9-1,21-2.2,22.5-3.7C419,258.4,417.7,237.8,414.3,236.3z"/>
		</g>
		<g>
			<defs>
				<path id="SVGID_2_" d="M341.4,198.5c0,0-3.7-11.5,13.1-27.5s34.5-1.5,46.4-11.9c11.9-10.4,12.1-14.2,15.6-13.5
					c3.6,0.7,42.1,88.5-48.4,85.6C337.6,218.9,341.4,198.5,341.4,198.5z"/>
			</defs>
			<clipPath id="SVGID_3_">
				<use xlink:href="#SVGID_2_"  style="overflow:visible;"/>
			</clipPath>
			<g class="st2">
				
					<linearGradient id="SVGID_4_" gradientUnits="userSpaceOnUse" x1="-5.5489" y1="349.6529" x2="-59.3585" y2="373.7745" gradientTransform="matrix(-0.7578 0.6525 0.6525 0.7578 103.8611 -53.5797)">
					<stop  offset="0" style="stop-color:#BBFF8E"/>
					<stop  offset="1" style="stop-color:#BBE68E"/>
				</linearGradient>
				<path class="st3" d="M341.4,198.5c0,0-3.7-11.5,13.1-27.5s34.5-1.5,46.4-11.9c11.9-10.4,12.1-14.2,15.6-13.5
					c3.6,0.7,42.1,88.5-48.4,85.6C337.6,218.9,341.4,198.5,341.4,198.5z"/>
				<path class="st4" d="M395.2,184.7c6.9-6.4,13.6-13.1,18.3-21.2c2.1-3.6,3.8-7.4,4.8-11.5c0.2-0.9,0.4-1.9,0.6-2.9
					c0.8,1.6,1.8,3.7,2.7,6.2c-0.5,5-3.3,9.7-6.1,13.8c-5.6,8-13,14.4-18.8,22.3c-8,10.9-13.4,25.6-11.9,39.4
					c-5,0.6-10.5,0.8-16.6,0.6c-1.1-0.4-2.1-0.9-3.1-1.3c0.7-7.7,2.9-14.8,7.5-21.6C378.7,199.3,387.2,192.1,395.2,184.7z"/>
				<path class="st5" d="M418.2,140.9C418.2,140.9,418.2,140.9,418.2,140.9c1.2-0.3,0.7-0.4,1.8,0c0,0,0,0.1,0,0.1
					c-2-0.7-0.8,4.7-0.8,5.4c0,0.9-0.1,1.8-0.2,2.7c-0.1-0.2-0.2-0.3-0.3-0.5C418.9,146.1,418.8,143.5,418.2,140.9z"/>
				<path class="st5" d="M362.9,236.3c-0.8-2.6-1.1-5.3-1.1-7.9c1,0.5,2.1,1.1,3.3,1.6c-0.2,1.9-0.3,3.8-0.3,5.8
					C364.8,236.8,363.2,237.5,362.9,236.3z"/>
				<path class="st5" d="M384,192.1c8-7.2,16.7-13.7,23.7-21.9c5-5.9,10-13.6,10.9-21.6c0.1,0.2,0.2,0.3,0.3,0.5
					c-0.1,1-0.3,1.9-0.6,2.9c-1,4-2.7,7.9-4.8,11.5c-4.8,8.1-11.4,14.8-18.3,21.2c-8,7.4-16.5,14.6-22.7,23.7
					c-4.6,6.8-6.8,13.8-7.5,21.6c-1.1-0.5-2.2-1.1-3.3-1.6C362.2,214.2,374.3,200.8,384,192.1z"/>
				<path class="st5" d="M387.3,236.4c0,0.7-1.1,1.2-1.4,0.3c-0.5-2-0.9-4-1.1-6.1c0.9-0.1,1.7-0.2,2.5-0.3
					C387.3,232.4,387.3,234.4,387.3,236.4z"/>
				<path class="st5" d="M421.6,155.2c0.2-2-0.2-3.4-0.7-5.3c-0.1-0.4-0.4-1.2-0.4-1.7c0.2-0.9,0-0.6,0.7-1.2c0,0,0.1,0,0,0.1
					c-1.2,0.9,0.3,4.6,0.4,5.9c0.1,0.9,0.1,1.8,0,2.6c0-0.1-0.1-0.2-0.1-0.4C421.6,155.2,421.6,155.2,421.6,155.2z"/>
				<path class="st5" d="M396.7,191.3c5.8-7.8,13.2-14.3,18.8-22.3c2.8-4,5.6-8.7,6.1-13.8c0,0.1,0.1,0.2,0.1,0.4
					c-0.1,0.8-0.2,1.5-0.4,2.2c-0.8,3.3-2.3,6.4-4.1,9.2c-4.7,7.8-11.2,14.3-16.6,21.5c-5.3,6.9-9.2,14.7-11.3,23.2
					c-1.5,6.1-1.9,12.4-2,18.6c-0.8,0.1-1.7,0.2-2.5,0.3C383.3,216.9,388.6,202.2,396.7,191.3z"/>
			</g>
			<path class="st6" d="M415.6,138.3c2.8,2.2,1.4,5.8,0.3,8.6c-1.7,4.4-4.1,8.5-7,12.2c-6.3,8.1-14.9,13.3-24.3,16.8
				c-10.6,4-22.1,6.4-31.4,13c-4.2,3-7.7,6.7-10,11.4c-2.3,4.7-2.4,9.4-2.3,14.5c0,1.3-1.8,2-2.4,0.6c-2.9-7.1,1-15.3,5.5-20.8
				c6.1-7.4,15-11.4,23.8-14.5c10.3-3.5,21.2-6,30.3-12.1c4.4-3,8.2-6.7,11.4-10.9c2.5-3.3,10.6-14.8,6-18.7
				C415.4,138.4,415.5,138.2,415.6,138.3L415.6,138.3z"/>
			<path class="st6" d="M423.9,162.1c2.6,13,1,27.2-3.6,39.6c-5.2,14-14.9,25.4-27.5,33.5c-0.6,0.4-1.2-0.4-0.6-0.9
				c11.3-8.5,20.7-20.3,26.3-33.3C424,188.4,425.3,175.6,423.9,162.1C423.9,162.1,423.9,162.1,423.9,162.1L423.9,162.1z"/>
			<path class="st6" d="M410.7,146.7c-2.4,12.3-13.2,19.4-24.3,23.1c-14,4.7-29.1,5.8-42.4,12.6c-0.8,0.4-1.4-0.8-0.7-1.3
				c10.4-8.1,23.3-8.5,35.8-10.7C392.5,168,407.5,161.6,410.7,146.7C410.6,146.7,410.7,146.7,410.7,146.7L410.7,146.7z"/>
			
				<linearGradient id="SVGID_5_" gradientUnits="userSpaceOnUse" x1="-54.9443" y1="396.016" x2="-67.8027" y2="363.6404" gradientTransform="matrix(-0.7578 0.6525 0.6525 0.7578 103.8611 -53.5797)">
				<stop  offset="0" style="stop-color:#BBFF8E;stop-opacity:0"/>
				<stop  offset="1" style="stop-color:#BBE68E"/>
			</linearGradient>
			<path class="st7" d="M393.2,226.8c0.6-1.5,1.4-3.1,2-4.4c1.4-3.5,3.4-6.7,4.6-10.3c2-6.2,1.6-13-0.3-19.2c-1-3.5-2.7-6.8-4.4-10
				c-1.9-3.6-3.8-7.2-6.7-10.2c-2.7-2.9-5.9-5.4-9.4-7.3c0,0-0.1,0-0.1,0c1.7,0,3.4,0.1,5,0.2c3.5,1.8,6.7,3.8,10.1,5.9
				c4.2,2.6,8.2,4.8,11.7,8.2c3.2,3.2,6,7.4,7.6,11.6c3,7.8,3.5,16,1.7,24.1C410.1,220.4,403.1,224.5,393.2,226.8z"/>
			<g class="st8">
				<path class="st9" d="M401.1,204.7c11.2-9.6,19.7-22.3,24.5-36.2c5.9,26,3.1,64.8-57.5,62.8c-5.1-2.1-9.2-4.4-12.6-6.8
					C372.2,222.7,388.4,215.7,401.1,204.7z"/>
			</g>
		</g>
		<g>
			<path class="st0" d="M232.1,259.3c6.2-1.2,65.3-40.4,90.1-53.9c9.9-5.4,24.7-6.1,35-1.2c22.2,10.6,17,52.6,10.7,60.8
				c-5.9,7.7-142,6.7-142,6.7"/>
		</g>
		<g class="st10">
			<path class="st9" d="M321.2,270.2c1.1-1.8,2-3.8,2.1-5.9c0.1-2.1-0.5-4.4-2.2-5.7c-1.8-1.5-4.3-1.7-6.6-1.6
				c-6.3,0.2-12.6,1.7-18.9,1.8c-9.1,0.2-17.9-2.5-26.7-4.5c-7.2-1.6-8.2-3.6-15.5-4.1c-7.8,4.7-19.7,8.8-21.4,9.2l-6.3,12.4
				c0,0,54,0.4,95.4-1.3C321.1,270.3,321.1,270.3,321.2,270.2z"/>
		</g>
		<ellipse class="st5" cx="255.7" cy="274.2" rx="179.9" ry="14.4"/>
		<g>
			
				<linearGradient id="SVGID_6_" gradientUnits="userSpaceOnUse" x1="257.494" y1="206.1921" x2="306.2502" y2="206.1921" gradientTransform="matrix(0.9831 -0.1832 0.1832 0.9831 -53.8038 63.9064)">
				<stop  offset="0" style="stop-color:#BBFF8E"/>
				<stop  offset="1" style="stop-color:#BBE68E"/>
			</linearGradient>
			<path class="st11" d="M234.7,206.5c6-8.9,14-16.4,23.2-21.7c1.3-0.7,2.6-1.4,4.1-1.5c1.5-0.1,3.1,0.7,3.5,2.1
				c0.3,1.1-0.2,2.4-0.7,3.4c-2.9,5.8-6.8,11.1-11.5,15.5c4.7-4.4,10.7-7.5,17-8.8c2.1-0.4,4.9-0.2,5.5,1.9c0.3,1.1-0.3,2.2-0.8,3.1
				c-4.1,7.3-9.6,13.8-16.1,19c6.3-4.4,13.3-7.9,20.6-10.3c1.6-0.5,3.7-0.9,4.9,0.3c1.6,1.5,0.5,4.2-0.7,6.1
				c-9.6,14.6-23.3,26.5-39.1,34.1"/>
		</g>
		<g>
			<path class="st12" d="M241.3,207.7c-0.5-0.8-1.1-1.6-1.8-2.4c-2.4-2.7-5.6-4.8-9.4-5.9s-7.6-1-11.1,0.1c-1,0.3-1.9,0.6-2.8,1.1
				c-1.1,3-2,5.3-2.4,6.8c2.5,4.2,6.5,7.4,11.6,8.9s10.2,0.8,14.5-1.5C240.2,213.3,240.8,210.8,241.3,207.7z"/>
			<path class="st13" d="M241.4,207.3C241.4,207.3,241.4,207.3,241.4,207.3c0.2-0.9,0.3-1.8,0.5-2.8c0.4-2.1,0.7-4.3,1.1-6.7
				c0,0-0.1,0-0.1,0.1c0.1-0.8,0.2-1.6,0.4-2.4c-0.2-0.3-0.5-0.6-0.8-0.9c-2.4-2.7-5.6-4.8-9.4-5.9c-3.8-1.1-7.6-1-11.1,0.1
				c-0.4,0.1-0.8,0.2-1.1,0.4c-0.3,0.7-0.6,1.5-0.9,2.2c0,0,0-0.1,0-0.1c-0.9,2.2-1.8,4.3-2.5,6.3c-0.4,0.9-0.7,1.8-1,2.7
				c0,0,0,0,0,0c-0.1,0.1-0.1,0.3-0.2,0.4c0.9-0.4,1.8-0.8,2.8-1.1c3.5-1.1,7.3-1.2,11.1-0.1s7,3.2,9.4,5.9c0.7,0.7,1.3,1.5,1.8,2.4
				C241.4,207.6,241.4,207.4,241.4,207.3z"/>
			<path class="st14" d="M246.9,158.2c0-0.9-0.1-1.7-0.1-2.5c-0.3-3.6-1.1-6-2.4-6.4s-3.3,1.2-5.4,4.2c-0.5,0.6-0.9,1.3-1.4,2
				c1.6,0,3.2,0.3,4.9,0.7S245.5,157.4,246.9,158.2z"/>
			<path class="st15" d="M246.4,170.8c0.1-1.3,0.2-2.6,0.3-3.8c0.2-3.2,0.3-6.2,0.2-8.7c-1.4-0.8-2.9-1.5-4.5-1.9s-3.3-0.7-4.9-0.7
				c-1.4,2.1-2.9,4.7-4.4,7.5c-0.6,1.1-1.2,2.3-1.8,3.4c2.6-0.3,5.3-0.2,8,0.6C242,167.8,244.4,169.1,246.4,170.8z"/>
			<path class="st16" d="M225.9,177.7c3.3-0.8,6.8-0.9,10.4,0.1c3.5,1,6.5,2.9,8.9,5.3c0.2-1.8,0.4-3.7,0.6-5.5
				c0.3-2.4,0.5-4.7,0.6-6.9c-2-1.7-4.4-2.9-7.1-3.7c-2.7-0.8-5.4-0.9-8-0.6c-1,2-2.1,4.1-3.1,6.2
				C227.4,174.4,226.6,176.1,225.9,177.7z"/>
			<path class="st4" d="M243.6,194.2c0.3-2,0.6-4,0.9-6.1c0.2-1.4,0.4-2.8,0.6-4.2c0-0.3,0.1-0.5,0.1-0.8c-2.4-2.4-5.4-4.3-8.9-5.3
				c-3.5-1-7.1-1-10.4-0.1c-0.1,0.2-0.2,0.5-0.3,0.7c-0.6,1.3-1.2,2.6-1.7,3.9c-0.8,1.9-1.6,3.8-2.4,5.6c-0.2,0.4-0.3,0.8-0.5,1.2
				c0.4-0.1,0.8-0.3,1.1-0.4c3.5-1.1,7.3-1.2,11.1-0.1c3.8,1.1,7,3.2,9.4,5.9c0.3,0.3,0.5,0.6,0.8,0.9
				C243.4,195.1,243.5,194.7,243.6,194.2z"/>
		</g>
		<g>
			<g>
				
					<linearGradient id="SVGID_7_" gradientUnits="userSpaceOnUse" x1="-86.9631" y1="394.6467" x2="-90.0481" y2="438.2223" gradientTransform="matrix(-0.9975 7.136281e-02 7.136281e-02 0.9975 239.7095 -153.9533)">
					<stop  offset="0" style="stop-color:#99CACF"/>
					<stop  offset="0.9956" style="stop-color:#99ABCF"/>
				</linearGradient>
				<path class="st17" d="M346.9,257.9c-1.3-7.6-4.5-14.8-9.1-21c6.1-0.5,12.2-0.9,18.3-0.6c11,0.6,23.7,12,16.1,24
					c-6.9,10.9-15.8,15.5-26,17.3C347.8,271.2,348.1,264.4,346.9,257.9z"/>
				<path class="st0" d="M269.1,238.6c15.4,0.7,30.9,0.9,46.4,0.2c7.5-0.3,14.9-1.2,22.4-1.9c4.6,6.2,7.8,13.4,9.1,21
					c1.1,6.5,0.9,13.3-0.7,19.7c-7,1.2-14.7,1-22.8,0.4c-18.9-1.4-37.8-4.1-56.4-7.5C249.7,267.3,250.5,237.7,269.1,238.6z"/>
			</g>
			<path class="st4" d="M264.1,232.2c4.9,1.8,9.8,4.3,13.6,7.9c2.8,2.6,5,5.8,5.1,8.7c0,1.2-0.2,2.2-0.8,3.2c-12,2-31-1-44.9-14.2
				c-8.6-8.1-9.5-14.2-7.6-18.5c6.5,3.4,13.1,6.2,19.8,8.3C254.3,229.2,259.2,230.4,264.1,232.2z"/>
			<path class="st0" d="M293.4,245c-0.3,3.3-4.7,5.9-11.4,7c0.5-0.9,0.8-2,0.8-3.2c-0.1-2.9-2.3-6.2-5.1-8.7
				c-3.9-3.6-8.8-6.1-13.6-7.9c-4.9-1.8-9.8-3-14.7-4.6c-6.7-2.1-13.4-4.9-19.8-8.3c3-6.6,12.6-9.2,12.6-9.2s14,10.4,27.2,16.7
				C282.6,233.3,294.1,235.8,293.4,245z"/>
		</g>
		
			<linearGradient id="SVGID_8_" gradientUnits="userSpaceOnUse" x1="96.044" y1="203.1391" x2="125.9304" y2="321.9183" gradientTransform="matrix(0.962 0.2729 -0.2729 0.962 93.6712 -49.9267)">
			<stop  offset="0" style="stop-color:#99CACF"/>
			<stop  offset="0.9956" style="stop-color:#99ABCF"/>
		</linearGradient>
		<path class="st18" d="M181.9,224c2.7-20.6-2.1-41.9-12.5-59.7c-15-6.8-28.4-11-36.5-9.9c-24.8,3.3-88.1,43.8-38.1,112
			c8.8,11.4,31.3,15.7,56.2,15.8C167.6,267.1,179,246.2,181.9,224z"/>
		<path class="st0" d="M250.5,217.1c-12.4-13.6-50.2-38.9-81.1-52.9c10.5,17.9,15.2,39.2,12.5,59.7c-2.9,22.3-14.3,43.1-31,58.1
			c39.2,0.2,84.5-9.9,92.7-18.3C256.2,250.9,263.2,231.1,250.5,217.1z"/>
		<g class="st10">
			<path class="st9" d="M131.8,262c-24-6.2-44.5-23.6-55.7-45.5c-0.2,14.4,4.9,31,18.7,49.8c8.8,11.4,31.3,15.7,56.2,15.8
				c39.2,0.2,84.5-9.9,92.7-18.3c3.9-4,7.3-8.7,9.7-13.7c-22.6,7-46.1,11.3-69.6,13.7C166.4,265.6,148.6,266.4,131.8,262z"/>
		</g>
		
			<ellipse transform="matrix(0.6641 -0.7477 0.7477 0.6641 -85.5663 171.6475)" class="st5" cx="148.2" cy="181" rx="10.4" ry="16.7"/>
		<g>
			<g>
				<path class="st19" d="M226.1,213.5c-4,2.7-9.7,6.8-14.7,4.6c-5.7-2.5-1.8-9.7,0.8-13.1c0.8-1-0.2-2.6-1.4-1.9
					c-5.5,3.2-11.9,12.5-4.9,17.8C212.7,226,221.7,218,226.1,213.5C226.1,213.5,226.1,213.5,226.1,213.5L226.1,213.5z"/>
			</g>
		</g>
		<g>
			<g>
				<path class="st14" d="M131.7,240.9c-6.5,1.8-12.5,5.5-17.1,10.5c1,0.4,2,0.7,3,0.9c6.1,1.2,12.5,0.9,18.5-0.9
					c2.7-0.8,5.6-2.2,6.9-4.8c1-2,0.8-4.3,0-6.4C139.3,239.6,135.3,239.9,131.7,240.9z"/>
			</g>
			<g>
				<path class="st0" d="M121.8,233.7c3.7,0.8,7.6,0.4,11.2-0.7c1-0.3,2-0.7,3-1.1c-3.9-2.6-8.7-4.1-13.4-4.2
					c-2.8-0.1-5.6,0.3-8.1,1.5c-0.2,0.1-0.4,0.2-0.6,0.3C116,231.7,118.9,233.1,121.8,233.7z"/>
			</g>
			<g>
				<path class="st19" d="M136,231.9c-1,0.4-2,0.8-3,1.1c-3.6,1.1-7.5,1.5-11.2,0.7c-2.9-0.6-5.8-2-7.9-4.1c-2.2,1.3-4,3.3-4.5,5.8
					c-0.6,2.7,0.6,5.8,3.1,7.1l0.1,0c-0.1,0.1-0.1,0.1-0.2,0.2c-1.4,1.8-1.9,4.4-0.8,6.3c0.7,1.2,1.8,2,3,2.5
					c4.6-5,10.6-8.7,17.1-10.5c3.6-1,7.6-1.3,11.3-0.6c-0.2-0.6-0.5-1.3-0.8-1.9C140.7,235.8,138.5,233.6,136,231.9z"/>
			</g>
		</g>
		<path class="st20" d="M103.8,172c0,0-7.3-6.4-5.1-15.6s44.9-70.9-5-77.7S19.5,157.1,103.8,172z"/>
		<g>
			<g>
				<path class="st0" d="M100,87.3c-7.4-5.1-17.9-4.5-25.2,0.3c-0.7,0.5-0.3,1.6,0.6,1.4c8.4-2.1,16-2.2,24.6-1.6
					C100,87.5,100,87.4,100,87.3L100,87.3z"/>
			</g>
		</g>
		<g>
			<g>
				<path class="st0" d="M67.8,94.2c2,0,2-3.1,0-3.1C65.8,91.1,65.8,94.2,67.8,94.2L67.8,94.2z"/>
			</g>
		</g>
	</g>
	<g>
		<text transform="matrix(0.9625 -0.2711 0.2711 0.9625 163.361 141.8904)" class="st19 st21 st22">z</text>
	</g>
	<g>
		<text transform="matrix(1 0 0 1 190.8509 103.6569)" class="st19 st21 st23">z</text>
	</g>
	<g>
		<text transform="matrix(0.9298 0.368 -0.368 0.9298 237.0027 71.7863)" class="st19 st21 st24">z</text>
	</g>
</g>
</svg>
