<?xml version="1.0" encoding="utf-8"?>
<!-- Generator: Adobe Illustrator 23.0.1, SVG Export Plug-In . SVG Version: 6.00 Build 0)  -->
<svg version="1.1" id="Capa_1" xmlns="http://www.w3.org/2000/svg" xmlns:xlink="http://www.w3.org/1999/xlink" x="0px" y="0px"
	 viewBox="0 0 32 32" style="enable-background:new 0 0 32 32;" xml:space="preserve">
<style type="text/css">
	.st0{opacity:0.5;fill:#CDCCCC;}
	.st1{fill:url(#SVGID_1_);}
	.st2{fill:#FFFFFF;}
	.st3{fill:url(#SVGID_2_);}
	.st4{clip-path:url(#SVGID_4_);}
	.st5{fill:url(#SVGID_5_);}
	.st6{fill:#D9DE58;}
	.st7{opacity:0.5;clip-path:url(#SVGID_4_);fill:#CDCCCC;}
	.st8{opacity:0.8;clip-path:url(#SVGID_4_);fill:url(#SVGID_6_);}
	.st9{opacity:0.5;clip-path:url(#SVGID_4_);}
	.st10{fill:#CDCCCC;}
	.st11{fill:#EE7375;}
	.st12{fill:#99A5CF;}
	.st13{fill:#9ACAD0;}
	.st14{fill:#FABB5D;}
	.st15{fill:#F9EE7C;}
	.st16{fill:url(#SVGID_7_);}
	.st17{opacity:0.5;}
	.st18{fill:#2E1D30;}
	.st19{fill:url(#SVGID_8_);}
	.st20{fill:url(#SVGID_9_);}
</style>
<g>
	<ellipse class="st0" cx="16.8" cy="29.6" rx="13" ry="1.6"/>
	<g>
		<g>
			
				<linearGradient id="SVGID_1_" gradientUnits="userSpaceOnUse" x1="52.8837" y1="354.455" x2="57.64" y2="354.455" gradientTransform="matrix(-0.5581 -0.8298 -0.8298 0.5581 349.5152 -136.7753)">
				<stop  offset="0" style="stop-color:#BFD783"/>
				<stop  offset="1" style="stop-color:#BCD78E"/>
			</linearGradient>
			<path class="st1" d="M25.6,11.6c0.9,0.6,1.6,1.6,1.8,2.7c0.1,0.3,0.1,0.6-0.1,0.9c-0.2,0.3-0.6,0.4-1,0.4s-0.7-0.3-1-0.5
				c0.5,0.4,0.7,1.1,0.5,1.7c-0.1,0.3-0.3,0.6-0.7,0.7c-0.4,0.1-0.8-0.3-1.2-0.6c0.2,0.4,0.2,1-0.2,1.2c-0.2,0.2-0.5,0.2-0.8,0.1
				c-0.3-0.1-0.5-0.3-0.7-0.4c-0.5-0.5-1-1-1.3-1.7"/>
		</g>
		<g>
			<path class="st2" d="M7.6,24.7c2.4-0.5,7.7,0.8,7.7,0.8s0.6,1.4-0.1,2.6c-0.1-0.2-3.8,0.9-6.1,1.2C9.2,27.6,8.7,26,7.6,24.7z"/>
			
				<linearGradient id="SVGID_2_" gradientUnits="userSpaceOnUse" x1="152.8963" y1="-270.1398" x2="153.2736" y2="-266.8387" gradientTransform="matrix(-0.9364 0.3508 0.3508 0.9364 245.1999 225.4101)">
				<stop  offset="0" style="stop-color:#9ACAD0"/>
				<stop  offset="0.9956" style="stop-color:#99ABCF"/>
			</linearGradient>
			<path class="st3" d="M6.9,25c0.2-0.1,0.5-0.2,0.8-0.3c1,1.3,1.6,2.9,1.5,4.6c-0.6,0.1-1.1,0.1-1.3,0C6.5,28.9,5.1,26.1,6.9,25z"
				/>
		</g>
		<g>
			<defs>
				<path id="SVGID_3_" d="M21.1,24.7c0,0,0.3-1,2.4-1.4s2.7,1.6,4.1,1.5s1.6-0.4,1.9-0.2c0.2,0.2-1.4,8.8-8,3.9
					C19.8,26,21.1,24.7,21.1,24.7z"/>
			</defs>
			<clipPath id="SVGID_4_">
				<use xlink:href="#SVGID_3_"  style="overflow:visible;"/>
			</clipPath>
			<g class="st4">
				
					<linearGradient id="SVGID_5_" gradientUnits="userSpaceOnUse" x1="470.3193" y1="-141.2407" x2="465.4462" y2="-139.0562" gradientTransform="matrix(-0.9938 0.1116 0.1116 0.9938 503.3773 113.0098)">
					<stop  offset="0" style="stop-color:#BFD783"/>
					<stop  offset="1" style="stop-color:#BCD78E"/>
				</linearGradient>
				<path class="st5" d="M21.1,24.7c0,0,0.3-1,2.4-1.4s2.7,1.6,4.1,1.5s1.6-0.4,1.9-0.2c0.2,0.2-1.4,8.8-8,3.9
					C19.8,26,21.1,24.7,21.1,24.7z"/>
				<path class="st6" d="M25.8,26.4c0.8-0.1,1.7-0.3,2.5-0.7c0.3-0.2,0.7-0.4,0.9-0.6c0.1-0.1,0.1-0.1,0.2-0.2
					c0,0.2-0.1,0.4-0.1,0.6c-0.3,0.4-0.7,0.6-1.2,0.7c-0.8,0.3-1.7,0.4-2.5,0.7c-1.2,0.4-2.3,1.2-2.9,2.3c-0.4-0.2-0.8-0.5-1.3-0.8
					c-0.1-0.1-0.1-0.2-0.2-0.3c0.4-0.5,1-1,1.7-1.2C23.8,26.7,24.9,26.6,25.8,26.4z"/>
				<path class="st0" d="M29.8,24.3C29.8,24.3,29.8,24.3,29.8,24.3c0.1,0,0.1,0,0.1,0.1c0,0,0,0,0,0c-0.1-0.2-0.3,0.3-0.3,0.4
					c0,0.1-0.1,0.1-0.2,0.2c0,0,0,0,0-0.1C29.6,24.8,29.7,24.6,29.8,24.3z"/>
				<path class="st0" d="M20.8,28.6c0.1-0.2,0.2-0.5,0.3-0.6c0,0.1,0.1,0.2,0.2,0.3c-0.1,0.1-0.2,0.3-0.3,0.4
					C20.9,28.8,20.7,28.7,20.8,28.6z"/>
				<path class="st0" d="M24.6,26.4c1-0.1,1.9-0.2,2.9-0.4c0.7-0.2,1.4-0.5,1.9-1.1c0,0,0,0,0,0.1c-0.1,0.1-0.1,0.1-0.2,0.2
					c-0.3,0.3-0.6,0.5-0.9,0.6c-0.8,0.4-1.6,0.5-2.5,0.7c-1,0.1-2,0.2-2.9,0.6c-0.7,0.3-1.2,0.7-1.7,1.2c-0.1-0.1-0.1-0.2-0.2-0.3
					C21.8,27,23.4,26.6,24.6,26.4z"/>
				<path class="st0" d="M22.6,29.9c0,0.1-0.1,0-0.1,0c0.1-0.2,0.1-0.3,0.2-0.5c0.1,0,0.1,0.1,0.2,0.1
					C22.8,29.6,22.7,29.7,22.6,29.9z"/>
				<path class="st0" d="M29.3,25.6c0.1-0.1,0.2-0.3,0.2-0.4c0,0,0-0.1,0.1-0.1c0.1-0.1,0,0,0.1-0.1c0,0,0,0,0,0
					c-0.1,0-0.2,0.4-0.3,0.5C29.4,25.5,29.3,25.6,29.3,25.6C29.3,25.6,29.3,25.6,29.3,25.6C29.3,25.6,29.3,25.6,29.3,25.6z"/>
				<path class="st0" d="M25.6,27c0.8-0.3,1.7-0.4,2.5-0.7c0.4-0.2,0.9-0.4,1.2-0.7c0,0,0,0,0,0c0,0.1-0.1,0.1-0.1,0.1
					c-0.2,0.2-0.5,0.4-0.8,0.5c-0.7,0.3-1.6,0.5-2.3,0.8c-0.7,0.2-1.4,0.6-2,1.2c-0.4,0.4-0.8,0.8-1.1,1.3c-0.1,0-0.1-0.1-0.2-0.1
					C23.3,28.2,24.4,27.4,25.6,27z"/>
			</g>
			<path class="st7" d="M29.7,24c0.1,0.3-0.2,0.5-0.4,0.7c-0.4,0.2-0.7,0.4-1.1,0.6c-0.9,0.3-1.8,0.2-2.7,0c-1-0.2-2-0.7-3-0.6
				c-0.5,0-0.9,0.1-1.3,0.3c-0.4,0.2-0.7,0.6-0.9,1C20.1,26,20,26,20,25.8c0.1-0.7,0.9-1.1,1.5-1.3c0.8-0.2,1.7-0.1,2.5,0.1
				c0.9,0.3,1.9,0.6,2.9,0.6c0.5,0,1-0.1,1.4-0.2C28.6,25,29.8,24.5,29.7,24C29.7,24,29.7,24,29.7,24L29.7,24z"/>
			<path class="st7" d="M29.1,26.2c-0.5,1.1-1.3,2.1-2.3,2.8c-1.1,0.8-2.4,1.1-3.8,1.1c-0.1,0-0.1-0.1,0-0.1
				c1.3-0.1,2.6-0.5,3.7-1.1C27.8,28.2,28.5,27.3,29.1,26.2C29.1,26.2,29.1,26.2,29.1,26.2L29.1,26.2z"/>
			<path class="st7" d="M28.9,24.4c-0.8,0.8-2,0.8-3,0.5c-1.3-0.4-2.5-1-3.8-1.2c-0.1,0-0.1-0.1,0-0.1c1.2-0.1,2.2,0.6,3.2,1
				C26.5,25,27.9,25.3,28.9,24.4C28.9,24.4,28.9,24.4,28.9,24.4L28.9,24.4z"/>
			
				<linearGradient id="SVGID_6_" gradientUnits="userSpaceOnUse" x1="465.846" y1="-137.042" x2="464.6815" y2="-139.974" gradientTransform="matrix(-0.9938 0.1116 0.1116 0.9938 503.3773 113.0098)">
				<stop  offset="0" style="stop-color:#BFD783;stop-opacity:0"/>
				<stop  offset="1" style="stop-color:#BCD78E"/>
			</linearGradient>
			<path class="st8" d="M23.5,29.5c0.1-0.1,0.3-0.2,0.4-0.2c0.3-0.2,0.6-0.3,0.9-0.5c0.5-0.4,0.8-0.9,1-1.4c0.1-0.3,0.1-0.6,0.2-1
				c0-0.4,0.1-0.7,0-1.1c-0.1-0.4-0.2-0.7-0.3-1c0,0,0,0,0,0c0.1,0.1,0.2,0.2,0.4,0.3c0.2,0.3,0.3,0.6,0.5,1
				c0.2,0.4,0.4,0.8,0.5,1.2c0.1,0.4,0.1,0.9,0,1.3c-0.2,0.7-0.6,1.4-1.1,1.9C25.1,29.9,24.4,29.8,23.5,29.5z"/>
			<g class="st9">
				<path class="st10" d="M25.2,28.2c1.3-0.1,2.6-0.7,3.7-1.5c-0.9,2.2-3.1,5-7.5,1.8c-0.3-0.4-0.5-0.8-0.6-1.1
					C22.2,28.1,23.7,28.4,25.2,28.2z"/>
			</g>
		</g>
		<g>
			<path class="st11" d="M23.8,7.9C23.9,7.5,24,7.1,24,6.7c0-0.3-0.1-0.6-0.3-0.8c-0.1-0.1-0.2-0.1-0.2-0.1c-0.7,0.6-1.6,2-1.5,3.5
				c0.1,1,0.4,1.3,0.8,1.4c0.1-0.6,0.3-1.1,0.5-1.7C23.4,8.7,23.6,8.3,23.8,7.9z"/>
			<path class="st2" d="M24.5,5.4c-0.2-0.2-0.6,0-1,0.3c0.1,0,0.2,0.1,0.2,0.1C23.9,6.1,24,6.4,24,6.7c0,0.4-0.1,0.9-0.2,1.3
				c-0.1,0.4-0.3,0.8-0.5,1.2c-0.2,0.5-0.4,1.1-0.5,1.7c0.6,0.2,1.2-0.3,1.2-0.3s0.1-1.4,0.4-2.6S25.1,5.9,24.5,5.4z"/>
		</g>
		<g>
			<path class="st12" d="M24.7,10.5c0-0.1-0.1-0.2-0.1-0.2c-0.2-0.3-0.4-0.5-0.7-0.7c-0.3-0.2-0.7-0.2-1-0.2c-0.1,0-0.2,0-0.3,0
				c-0.2,0.2-0.3,0.4-0.3,0.6c0.2,0.4,0.5,0.8,0.9,1c0.4,0.2,0.9,0.2,1.3,0.1C24.5,11,24.6,10.8,24.7,10.5z"/>
			<path class="st13" d="M24.7,10.5C24.7,10.5,24.7,10.5,24.7,10.5c0-0.1,0.1-0.2,0.1-0.2c0.1-0.2,0.1-0.4,0.2-0.6c0,0,0,0,0,0
				c0-0.1,0-0.1,0.1-0.2c0,0,0-0.1-0.1-0.1c-0.2-0.3-0.4-0.5-0.7-0.7c-0.3-0.2-0.7-0.2-1-0.2c0,0-0.1,0-0.1,0c0,0.1-0.1,0.1-0.1,0.2
				c0,0,0,0,0,0c-0.1,0.2-0.2,0.4-0.3,0.5c0,0.1-0.1,0.2-0.1,0.2c0,0,0,0,0,0c0,0,0,0,0,0c0.1,0,0.2,0,0.3,0c0.3,0,0.7,0,1,0.2
				c0.3,0.2,0.6,0.4,0.7,0.7C24.6,10.3,24.6,10.4,24.7,10.5C24.7,10.5,24.7,10.5,24.7,10.5z"/>
			<path class="st11" d="M26,6.2C26,6.1,26,6,26,6c0-0.3,0-0.6-0.1-0.6c-0.1-0.1-0.3,0.1-0.6,0.3c-0.1,0-0.1,0.1-0.2,0.2
				c0.1,0,0.3,0.1,0.4,0.1S25.9,6.1,26,6.2z"/>
			<path class="st14" d="M25.7,7.3c0-0.1,0.1-0.2,0.1-0.3C25.9,6.7,26,6.4,26,6.2c-0.1-0.1-0.2-0.2-0.4-0.2s-0.3-0.1-0.4-0.1
				c-0.2,0.2-0.3,0.4-0.5,0.6c-0.1,0.1-0.1,0.2-0.2,0.3c0.2,0,0.5,0.1,0.7,0.2S25.6,7.1,25.7,7.3z"/>
			<path class="st15" d="M23.8,7.6c0.3,0,0.6,0,0.9,0.2c0.3,0.1,0.5,0.4,0.7,0.6c0.1-0.2,0.1-0.3,0.2-0.5c0.1-0.2,0.1-0.4,0.2-0.6
				c-0.2-0.2-0.3-0.3-0.6-0.4s-0.5-0.2-0.7-0.2c-0.1,0.2-0.3,0.3-0.4,0.5C24,7.3,23.9,7.4,23.8,7.6z"/>
			<path class="st6" d="M25.1,9.3c0.1-0.2,0.1-0.3,0.2-0.5c0-0.1,0.1-0.2,0.1-0.4c0,0,0,0,0-0.1c-0.2-0.3-0.4-0.5-0.7-0.6
				c-0.3-0.1-0.6-0.2-0.9-0.2c0,0,0,0,0,0.1c-0.1,0.1-0.1,0.2-0.2,0.3c-0.1,0.2-0.2,0.3-0.3,0.5c0,0,0,0.1-0.1,0.1c0,0,0.1,0,0.1,0
				c0.3,0,0.7,0,1,0.2C24.6,8.8,24.8,9.1,25.1,9.3c-0.1,0-0.1,0.1,0,0.1C25.1,9.4,25.1,9.4,25.1,9.3z"/>
		</g>
		<g>
			<path class="st6" d="M26.1,9.4c0.3-0.4,0.6-0.8,0.7-1.2c0.1-0.3,0.1-0.7,0-0.9c-0.1-0.1-0.1-0.2-0.2-0.2c-1,0.4-2.4,1.5-2.9,3.2
				c-0.3,1-0.1,1.5,0.3,1.8c0.4-0.6,0.7-1.1,1.2-1.6C25.5,10.1,25.8,9.8,26.1,9.4z"/>
			<path class="st2" d="M27.9,7.1c-0.2-0.2-0.6-0.2-1.2,0c0.1,0,0.2,0.1,0.2,0.2c0.1,0.2,0.1,0.6,0,0.9c-0.1,0.5-0.4,0.9-0.7,1.2
				c-0.3,0.4-0.6,0.7-0.9,1c-0.4,0.5-0.8,1-1.2,1.6c0.5,0.4,1.4,0.1,1.4,0.1s0.6-1.4,1.4-2.6C27.5,8.5,28.3,7.7,27.9,7.1z"/>
		</g>
		
			<linearGradient id="SVGID_7_" gradientUnits="userSpaceOnUse" x1="-592.8728" y1="172.2393" x2="-590.1663" y2="182.9961" gradientTransform="matrix(0.8939 0.4483 -0.4483 0.8939 622.6129 117.2282)">
			<stop  offset="0" style="stop-color:#9ACAD0"/>
			<stop  offset="0.9956" style="stop-color:#99ABCF"/>
		</linearGradient>
		<path class="st16" d="M19.1,10.9c0.6-1.8,0.5-3.8-0.1-5.5c-1.2-0.9-2.3-1.5-3.1-1.5c-2.3-0.1-8.6,2.4-5.3,9.3
			c0.6,1.2,2.5,1.9,4.7,2.4C17.1,14.5,18.5,12.9,19.1,10.9z"/>
		<path class="st2" d="M25.3,11.5c-0.9-1.4-3.8-4.3-6.3-6.1c0.6,1.8,0.7,3.7,0.1,5.5c-0.6,1.9-2,3.6-3.7,4.6
			c3.5,0.7,7.7,0.6,8.6-0.1C25.3,14.6,26.2,12.9,25.3,11.5z"/>
		<g class="st17">
			<path class="st10" d="M14,13.5c-2-1-3.6-2.9-4.2-5c-0.3,1.3-0.1,2.8,0.8,4.7c0.6,1.2,2.5,1.9,4.7,2.4c3.5,0.7,7.7,0.6,8.6-0.1
				c0.4-0.3,0.8-0.6,1.1-1c-2.1,0.2-4.3,0.2-6.4,0C17,14.4,15.4,14.1,14,13.5z"/>
		</g>
		<ellipse transform="matrix(0.7924 -0.61 0.61 0.7924 -0.4962 11.6338)" class="st0" cx="16.8" cy="6.5" rx="0.9" ry="1.5"/>
		<ellipse transform="matrix(0.3147 -0.9492 0.9492 0.3147 5.7057 28.4532)" class="st18" cx="22.6" cy="10.3" rx="0.9" ry="0.5"/>
		<path class="st2" d="M21.7,16l-0.6,1.8c0,0,3.1,10-0.6,11.1c-3.6,1-6.6-0.5-6.9-2.6s3.7-8.4,5.4-8.8l0.5-2.1"/>
		<g>
			
				<linearGradient id="SVGID_8_" gradientUnits="userSpaceOnUse" x1="-0.4163" y1="417.9922" x2="-0.7061" y2="422.0853" gradientTransform="matrix(-0.3947 -0.9188 -0.9188 0.3947 408.6576 -137.9763)">
				<stop  offset="0" style="stop-color:#9ACAD0"/>
				<stop  offset="0.9956" style="stop-color:#99ABCF"/>
			</linearGradient>
			<path class="st19" d="M22.4,27.5c0.6-0.4,1.2-0.9,1.6-1.5c0.2,0.5,0.5,1.1,0.6,1.6c0.3,1-0.3,2.5-1.6,2.2
				c-1.2-0.3-1.9-0.9-2.3-1.8C21.2,27.9,21.8,27.8,22.4,27.5z"/>
			<path class="st2" d="M21.7,20c0.4,1.4,0.9,2.8,1.4,4.1c0.3,0.7,0.6,1.3,0.9,1.9c-0.4,0.6-0.9,1.1-1.6,1.5
				c-0.5,0.3-1.2,0.5-1.8,0.5c-0.3-0.6-0.5-1.3-0.7-2c-0.5-1.7-0.8-3.5-1.1-5.2C18.5,19.1,21.2,18.3,21.7,20z"/>
		</g>
		<g class="st17">
			<path class="st10" d="M18.3,20.8c-0.7,0-1.4-0.4-1.9-0.8c1-1.3,2-2.4,2.7-2.5l0.5-2.1l2.2,0.7l-0.6,1.8c0,0,0.1,0.4,0.3,1.1
				c-0.2,0.3-0.4,0.5-0.6,0.8C20.1,20.4,19.2,20.8,18.3,20.8z"/>
		</g>
		<g>
			<path class="st2" d="M11,25.9c2.4-0.5,7.7,0.8,7.7,0.8s0.6,1.4-0.1,2.6c-0.1-0.2-3.8,0.9-6.1,1.2C12.6,28.8,12,27.1,11,25.9z"/>
			
				<linearGradient id="SVGID_9_" gradientUnits="userSpaceOnUse" x1="150.1817" y1="-267.9086" x2="150.559" y2="-264.6075" gradientTransform="matrix(-0.9364 0.3508 0.3508 0.9364 245.1999 225.4101)">
				<stop  offset="0" style="stop-color:#9ACAD0"/>
				<stop  offset="0.9956" style="stop-color:#99ABCF"/>
			</linearGradient>
			<path class="st20" d="M10.2,26.1c0.2-0.1,0.5-0.2,0.8-0.3c1,1.3,1.6,2.9,1.5,4.6c-0.6,0.1-1.1,0.1-1.3,0
				C9.8,30,8.4,27.2,10.2,26.1z"/>
		</g>
	</g>
	<g>
		<g>
			<g>
				<path class="st18" d="M11.8,5.5C12,4.7,12.1,3.9,12,3.1c0-0.6-0.2-1.3-0.6-1.8S10.3,0.6,9.8,1C9.5,1.2,9.4,1.5,9.4,1.9
					c-0.1,0.8,0.3,1.7,1,2c-0.5-0.4-1.2-0.4-1.7,0C8.2,4.3,8.1,5.1,8.5,5.6c0.3,0.5,1,0.7,1.6,0.8c0.3,0,0.6,0.1,0.8,0
					c0.3-0.1,0.5-0.2,0.6-0.5"/>
			</g>
			<path class="st18" d="M11.8,5.7c0.2-0.8,0.9-1.7,1.7-1.9c0,0,0.1,0,0,0.1c-0.4,0.2-0.7,0.5-1,0.8C12.2,4.9,12,5.3,11.8,5.7
				C11.8,5.7,11.7,5.7,11.8,5.7L11.8,5.7z"/>
			<path class="st18" d="M11.8,5.5c0.4-0.5,0.9-1.1,1.6-1.3c0,0,0.1,0,0,0.1C12.8,4.5,12.3,5.1,11.8,5.5C11.8,5.6,11.8,5.5,11.8,5.5
				L11.8,5.5z"/>
			<path class="st18" d="M11.8,5.6c0,0.4-0.1,0.9-0.4,1.3c-0.3,0.4-0.8,0-0.5-0.4c0.1-0.2,0.3-0.3,0.4-0.4
				C11.5,5.9,11.6,5.7,11.8,5.6C11.7,5.5,11.8,5.6,11.8,5.6L11.8,5.6z"/>
		</g>
		<g>
			<g>
				<path class="st15" d="M11.3,4.1c0,0.2,0.3-0.1,0.3-0.2c0.3-0.6,0-1.8-0.5-2.3c-0.5-0.6-1.3-0.1-1,0.6c0.1,0.4,0.4,0.7,0.6,1.1
					c0.1,0.2,0.2,0.4,0.3,0.6c0,0.1,0.1,0.1,0.1,0.2C11.2,4.1,11.3,4.2,11.3,4.1C11.3,4.1,11.3,4.1,11.3,4.1L11.3,4.1z"/>
			</g>
		</g>
		<g>
			<g>
				<path class="st15" d="M10.4,3.4c0-0.2-0.1-0.3-0.2-0.5c-0.1-0.1-0.3,0-0.2,0.2C10.1,3.3,10.1,3.3,10.4,3.4
					C10.4,3.5,10.4,3.4,10.4,3.4L10.4,3.4z"/>
			</g>
		</g>
		<g>
			<g>
				<path class="st15" d="M11,5.2c-0.2-0.4-0.5-0.9-0.9-1C9.6,3.9,9.1,4.7,9.7,5C10.1,5.1,10.5,5.2,11,5.2C11,5.2,11.1,5.2,11,5.2
					L11,5.2z"/>
			</g>
		</g>
		<g>
			<g>
				<path class="st15" d="M10.7,5.6c-0.4-0.1-0.8-0.4-1.3-0.3c-0.1,0-0.1,0.1-0.1,0.2C9.7,6,10.3,5.9,10.7,5.6
					C10.7,5.7,10.7,5.6,10.7,5.6L10.7,5.6z"/>
			</g>
		</g>
		<g>
			<g>
				<path class="st15" d="M9,5c0.1,0,0.2-0.2,0-0.2C8.9,4.7,8.9,5,9,5L9,5z"/>
			</g>
		</g>
	</g>
	<g>
		<g>
			<path class="st11" d="M23.3,11.9c0.1,0.2,0.1,0.4,0.3,0.6c0,0.1,0.1,0,0.1,0C23.6,12.3,23.5,12.1,23.3,11.9
				C23.3,11.9,23.3,11.9,23.3,11.9L23.3,11.9z"/>
		</g>
	</g>
	<g>
		<g>
			<path class="st11" d="M22.6,11.8c0.1,0.3,0.1,0.5,0.3,0.7c0.1,0.1,0.2,0,0.2-0.1C23,12.2,22.9,12,22.6,11.8
				C22.7,11.8,22.6,11.8,22.6,11.8L22.6,11.8z"/>
		</g>
	</g>
	<g>
		<g>
			<path class="st11" d="M22.2,11.7c0,0.2,0,0.4,0.2,0.6c0,0.1,0.2,0,0.1-0.1C22.4,12.1,22.3,11.9,22.2,11.7
				C22.2,11.7,22.2,11.7,22.2,11.7L22.2,11.7z"/>
		</g>
	</g>
	<g class="st17">
		<g>
			<path class="st10" d="M20.6,28c-0.8-1.6-1-3.3-1.2-5c0-0.1-0.1-0.1-0.1,0C19.4,24.7,19.7,26.5,20.6,28C20.6,28.1,20.7,28,20.6,28
				L20.6,28z"/>
		</g>
	</g>
	<g class="st17">
		<g>
			<path class="st10" d="M11,25.9c2.2-0.5,4.2-0.3,6.4-0.1c0.1,0,0.1-0.1,0-0.1C15.3,25.3,13,25.2,11,25.9
				C10.9,25.8,10.9,25.9,11,25.9L11,25.9z"/>
		</g>
	</g>
</g>
</svg>
