<?xml version="1.0" encoding="utf-8"?>
<!-- Generator: Adobe Illustrator 23.0.1, SVG Export Plug-In . SVG Version: 6.00 Build 0)  -->
<svg version="1.1" id="Capa_1" xmlns="http://www.w3.org/2000/svg" xmlns:xlink="http://www.w3.org/1999/xlink" x="0px" y="0px"
	 viewBox="0 0 500 549" style="enable-background:new 0 0 500 549;" xml:space="preserve">
<style type="text/css">
	.st0{fill:#FFFFFF;}
	.st1{fill:url(#SVGID_1_);}
	.st2{fill:url(#SVGID_2_);}
	.st3{opacity:0.5;fill:#CCCCCC;}
	.st4{clip-path:url(#SVGID_4_);}
	.st5{fill:url(#SVGID_5_);}
	.st6{fill:#DDFF61;}
	.st7{opacity:0.5;clip-path:url(#SVGID_4_);fill:#CCCCCC;}
	.st8{opacity:0.8;clip-path:url(#SVGID_4_);fill:url(#SVGID_6_);}
	.st9{opacity:0.5;clip-path:url(#SVGID_4_);}
	.st10{fill:#CCCCCC;}
	.st11{fill:url(#SVGID_7_);}
	.st12{fill:#FF7373;}
	.st13{fill:url(#SVGID_8_);}
	.st14{fill:#6D4974;}
	.st15{fill:#99A5CF;}
	.st16{fill:#99CACF;}
	.st17{fill:#FFFB76;}
	.st18{fill:#FFBC5A;}
	.st19{fill:url(#SVGID_9_);}
	.st20{fill:url(#SVGID_10_);}
	.st21{fill:#301F30;}
	.st22{fill:#2E1E30;}
	.st23{clip-path:url(#SVGID_12_);fill:#301F30;}
	.st24{clip-path:url(#SVGID_14_);}
	.st25{fill:none;stroke:#301F30;stroke-width:5.6858;stroke-linecap:round;stroke-miterlimit:10;}
	.st26{clip-path:url(#SVGID_16_);}
	.st27{opacity:0.5;}
</style>
<g>
	<g>
		<path class="st0" d="M388,221.5c-13.2,17.5-22.9,38.1-35.5,53.4c-17.5,21.4-39.1,38.7-62.7,52.6c-12.7,7.5-18.1,23.8-12.2,37.2
			c5.4,12.2,21.3,23,35.2,17.3c33.8-14,63-32.4,91.2-55.7c12.5-10.3,24-21.7,34.5-34.1c3-3.6,6.1-7.1,9-10.9
			c-9.8-2.8-19.2-7.5-27.3-13.7C405.1,256.1,394.3,239.6,388,221.5z"/>
		<linearGradient id="SVGID_1_" gradientUnits="userSpaceOnUse" x1="413.8576" y1="188.6773" x2="446.5511" y2="275.386">
			<stop  offset="0" style="stop-color:#99CACF"/>
			<stop  offset="0.9956" style="stop-color:#99ABCF"/>
		</linearGradient>
		<path class="st1" d="M465.3,231c1.5-14-10.4-28.6-22.5-33.4c-14.2-5.7-28.6-2.5-39.9,7.6c-5.5,4.9-10.3,10.4-14.8,16.4
			c6.2,18.1,17.1,34.6,32.1,46.2c8.1,6.2,17.4,10.9,27.3,13.7c3.4-4.3,6.5-8.8,9-13.7C462.6,255.8,463.9,244.1,465.3,231z"/>
	</g>
	<g>
		<linearGradient id="SVGID_2_" gradientUnits="userSpaceOnUse" x1="125.341" y1="169.5129" x2="224.6766" y2="169.5129">
			<stop  offset="0" style="stop-color:#BBFF8E"/>
			<stop  offset="1" style="stop-color:#BBE68E"/>
		</linearGradient>
		<path class="st2" d="M224.7,108.8c-21.7-8.8-46.7-8.9-68.5-0.3c-6.1,2.4-12.3,5.9-15,11.9c-3.2,7.1-0.2,15.7,5.3,21.2
			s12.9,8.4,20.3,10.8c-12.5-4-27.3,0.2-35.7,10.3c-4.5,5.5-7.3,13.2-4.6,19.7c3.6,8.8,14.4,11.6,23.7,13.2
			c-9.3,1.6-18.9,8.3-19,17.7c-0.1,5.6,3.4,10.7,7.9,14c4.5,3.3,10,4.9,15.4,6.2c14.4,3.3,29.3,4.3,43.9,2.9"/>
	</g>
	<ellipse class="st3" cx="268.9" cy="531.4" rx="118.4" ry="9.5"/>
	<g>
		<defs>
			<path id="SVGID_3_" d="M206.2,400.9c0,0-8.3-19.8-49.5-21.8s-48.2,37.9-76.3,37.7c-28.1-0.2-32.7-5.1-36.7,0
				c-4,5.1,46,168,164.4,59.2C234.9,424,206.2,400.9,206.2,400.9z"/>
		</defs>
		<clipPath id="SVGID_4_">
			<use xlink:href="#SVGID_3_"  style="overflow:visible;"/>
		</clipPath>
		<g class="st4">
			<linearGradient id="SVGID_5_" gradientUnits="userSpaceOnUse" x1="223.9251" y1="407.351" x2="128.2956" y2="450.2193">
				<stop  offset="0" style="stop-color:#BBFF8E"/>
				<stop  offset="1" style="stop-color:#BBE68E"/>
			</linearGradient>
			<path class="st5" d="M206.2,400.9c0,0-8.3-19.8-49.5-21.8s-48.2,37.9-76.3,37.7c-28.1-0.2-32.7-5.1-36.7,0
				c-4,5.1,46,168,164.4,59.2C234.9,424,206.2,400.9,206.2,400.9z"/>
			<path class="st6" d="M117.6,444.7c-16.6-0.6-33.4-1.9-49.2-7.3c-7-2.4-13.7-5.6-19.8-9.9c-1.4-1-2.8-2.1-4.1-3.2
				c0.7,3.1,1.9,7,3.5,11.4c6.4,6.2,15.7,9.3,24.2,11.5c16.8,4.3,34.3,4.3,51.2,8.1c23.4,5.3,47.7,19,61.7,39.2
				c7.4-5,15.1-11.1,23.1-18.5c0.9-1.8,1.8-3.6,2.6-5.4c-9.9-9.6-21.1-16.5-35.1-20.4C156.8,445.2,137,445.4,117.6,444.7z"/>
			<path class="st3" d="M36,412.4c0-0.1-0.1-0.1-0.2-0.1c-1.9,1-1.1,0.3-2.2,2.2c0,0.1,0.1,0.1,0.1,0.1c1.8-3.3,6.6,5.4,7.3,6.3
				c1.1,1.2,2.2,2.3,3.5,3.4c-0.1-0.3-0.2-0.7-0.2-1C40.9,420.2,38.1,416.6,36,412.4z"/>
			<path class="st3" d="M221,476.6c-2-4.5-4.6-8.4-7.7-11.9c-0.8,1.9-1.6,3.9-2.5,5.9c2.4,2.3,4.8,4.9,7.1,7.5
				C219.1,479.6,221.9,478.7,221,476.6z"/>
			<path class="st3" d="M141.4,441.7c-19.1-0.4-38.3,1-57.3-2c-13.5-2.1-29.2-6.8-39.8-16.4c0.1,0.3,0.1,0.6,0.2,1
				c1.3,1.1,2.7,2.2,4.1,3.2c6,4.3,12.8,7.5,19.8,9.9c15.8,5.4,32.6,6.7,49.2,7.3c19.4,0.7,39.1,0.5,58,5.7
				c14,3.8,25.2,10.8,35.1,20.4c0.9-2,1.8-4,2.5-5.9C196.4,446.2,164.6,442.1,141.4,441.7z"/>
			<path class="st3" d="M188.3,505.2c0.8,1,2.9,0.3,2.2-1.1c-1.6-3.3-3.4-6.5-5.5-9.5c-1.3,0.9-2.5,1.7-3.8,2.5
				C183.7,499.7,186,502.5,188.3,505.2z"/>
			<path class="st3" d="M47.9,435.5c-2.5-2.5-3.6-4.9-5.2-7.9c-0.4-0.7-0.8-2.1-1.4-2.6c-1.3-1-0.7-0.8-2.3-0.8
				c-0.1,0-0.1,0.1,0,0.1c2.5-0.2,4.9,6.5,6.2,8.4c0.9,1.3,1.9,2.4,3.1,3.5c-0.1-0.2-0.2-0.4-0.2-0.6
				C48,435.6,47.9,435.6,47.9,435.5z"/>
			<path class="st3" d="M123.4,455.3c-16.9-3.8-34.4-3.9-51.2-8.1c-8.5-2.1-17.7-5.2-24.2-11.5c0.1,0.2,0.2,0.4,0.2,0.6
				c1,0.9,2,1.8,3.1,2.6c4.8,3.6,10.5,5.9,16.2,7.7c15.3,5,31.6,6.3,47.3,9.6c15.1,3.2,29.5,9.1,42.1,18.1
				c9.2,6.5,16.9,14.4,24.3,22.7c1.3-0.8,2.5-1.6,3.8-2.5C171.1,474.3,146.8,460.6,123.4,455.3z"/>
		</g>
		<path class="st7" d="M36.5,405.8c-1.3,6.1,4.9,9.4,9.6,11.9c7.4,3.9,15.4,6.7,23.6,8.4c17.9,3.6,35.4,0.7,52.3-5.6
			c18.8-6.9,37.1-17,57.4-18.9c9.1-0.8,18.2,0.1,26.6,3.7c8.5,3.7,14.1,9.9,20,16.8c1.5,1.8,4.8,0.6,3.9-2
			c-4.3-12.8-19.1-19.5-31.5-21.7c-16.7-2.9-33.4,2-48.9,8.1c-17.9,7.1-35.4,16.6-54.9,18.8c-9.3,1.1-18.8,0.6-28-1.4
			c-7.1-1.6-31.5-7.7-29.8-18.3C36.8,405.7,36.5,405.6,36.5,405.8L36.5,405.8z"/>
		<path class="st7" d="M52.8,447.6c11.5,20.4,30.2,37.9,50.7,49.2c23.4,12.8,49.5,17,75.8,13.2c1.2-0.2,1.1-2-0.1-1.9
			c-25.2,1.6-51.4-3.3-74.1-14.3C83.2,483.1,66.6,467.3,52.8,447.6C52.8,447.5,52.8,447.5,52.8,447.6L52.8,447.6z"/>
		<path class="st7" d="M52.8,411.5c17.5,13.9,40.3,10.8,59.6,2.9c24.3-9.9,46-25.9,71.8-32.2c1.6-0.4,0.9-2.7-0.6-2.7
			c-23.4,1.1-41.2,15.6-60.6,27.1C102,419.1,74.4,427.8,52.8,411.5C52.8,411.4,52.7,411.5,52.8,411.5L52.8,411.5z"/>
		<linearGradient id="SVGID_6_" gradientUnits="userSpaceOnUse" x1="136.1404" y1="489.7465" x2="113.2887" y2="432.2093">
			<stop  offset="0" style="stop-color:#BBFF8E;stop-opacity:0"/>
			<stop  offset="1" style="stop-color:#BBE68E"/>
		</linearGradient>
		<path class="st8" d="M169.1,499c-2.7-1.3-5.4-2.5-7.8-3.7c-6-3-12.4-5-18.1-8.5c-9.9-6-17.2-15.7-21.9-26.2
			c-2.6-5.9-4.2-12.3-5.6-18.6c-1.6-7.2-3.2-14.1-2.9-21.5c0.3-7.1,1.7-14.1,4.1-20.7c0-0.1,0-0.1,0.1-0.2c-2.2,2-4.4,4.1-6.5,6.1
			c-2.6,6.4-4.6,13-6.7,19.6c-2.7,8.3-5.5,15.9-6.3,24.7c-0.7,8,0.5,16.9,3.2,24.5c5.1,14,13.8,25.7,25.6,34.5
			C139,510.1,153.2,507.4,169.1,499z"/>
		<g class="st9">
			<path class="st10" d="M133,478.5c-26.2,0-52.3-7.2-75-20.4c22.3,41.9,70.9,90.8,150.2,18c4.5-8.7,7.4-16.6,9.1-23.7
				C192.7,469.2,162.9,478.5,133,478.5z"/>
		</g>
	</g>
	<g>
		<path class="st0" d="M99.4,409.5c26.2-37.8,113.2-89.2,113.2-89.2s25,10.9,33.3,36.3c-2.8-1.3-39.6,62-66.6,94.2
			C158.8,428.2,129.8,413.2,99.4,409.5z"/>
		
			<linearGradient id="SVGID_7_" gradientUnits="userSpaceOnUse" x1="205.1708" y1="206.6141" x2="212.2056" y2="268.1687" gradientTransform="matrix(-0.4302 0.9027 0.9027 0.4302 13.547 158.7606)">
			<stop  offset="0" style="stop-color:#99CACF"/>
			<stop  offset="0.9956" style="stop-color:#99ABCF"/>
		</linearGradient>
		<path class="st11" d="M92.7,423c1.1-4.2,3.4-8.7,6.7-13.4c30.4,3.6,59.4,18.6,79.9,41.3c-7,8.3-13.3,14.6-18.2,17.1
			C137.4,480.3,83,460.5,92.7,423z"/>
	</g>
	<path class="st0" d="M312.4,319.8l-44.8-4.4v0l-0.2,0l-0.2,0v0l-44.8,4.4c0,0-40.4,35.6-39,108.2c0,57.4,23.8,99.2,30.4,102
		s45.4-2.4,48.1-4.4c2.7-2,0-56.7,0-56.7l5.6-0.6l5.6,0.6c0,0-2.7,54.7,0,56.7c2.7,2,41.5,7.2,48.1,4.4c6.6-2.8,30.4-44.6,30.4-102
		C352.7,355.4,312.4,319.8,312.4,319.8z"/>
	<g>
		<path class="st12" d="M227.3,54.9c2.1-6.5,3.2-13.5,1.5-20.1c-1.2-4.8-3.9-9.4-8.3-11.6c-1.8-0.9-3.7-1.3-5.6-1.4
			c-15.1,11.5-29.6,34-23.3,58.1c3.9,14.9,12.3,20.2,20.9,21.1c1.3-9.3,3.7-18.4,7.2-27.1C222.1,67.6,225.2,61.4,227.3,54.9z"/>
		<path class="st0" d="M237.1,14.5c-5.3-2-13.9,0.9-22.2,7.3c1.9,0.1,3.9,0.5,5.6,1.4c4.4,2.2,7.2,6.8,8.3,11.6
			c1.6,6.6,0.5,13.6-1.5,20.1c-2.1,6.5-5.2,12.6-7.7,19c-3.5,8.7-5.9,17.8-7.2,27.1c13.1,1.4,26.8-7,26.8-7s-1.9-22.2,1.6-40.9
			S252,20.2,237.1,14.5z"/>
		<path class="st6" d="M304.4,54.9c-2.1-6.5-3.2-13.5-1.5-20.1c1.2-4.8,3.9-9.4,8.3-11.6c1.8-0.9,3.7-1.3,5.6-1.4
			c15.1,11.5,29.6,34,23.3,58.1c-3.9,14.9-12.3,20.2-20.9,21.1c-1.3-9.3-3.7-18.4-7.2-27.1C309.5,67.6,306.4,61.4,304.4,54.9z"/>
		<path class="st0" d="M294.6,14.5c5.3-2,13.9,0.9,22.2,7.3c-1.9,0.1-3.9,0.5-5.6,1.4c-4.4,2.2-7.2,6.8-8.3,11.6
			c-1.6,6.6-0.5,13.6,1.5,20.1c2.1,6.5,5.2,12.6,7.7,19c3.5,8.7,5.9,17.8,7.2,27.1c-13.1,1.4-26.8-7-26.8-7s1.9-22.2-1.6-40.9
			S279.7,20.2,294.6,14.5z"/>
		<linearGradient id="SVGID_8_" gradientUnits="userSpaceOnUse" x1="269.3875" y1="224.6315" x2="264.0979" y2="339.2399">
			<stop  offset="0" style="stop-color:#99CACF"/>
			<stop  offset="0.9956" style="stop-color:#99ABCF"/>
		</linearGradient>
		<path class="st13" d="M266.9,346.9c53.5,0,100.6-29.2,105.6-51.3c1.1-4.8,1.7-10.5,2.1-16.7c-20.8-38.1-61.2-64-107.7-64
			s-86.9,25.9-107.7,64c0.3,6.2,1,11.8,2.1,16.7C166.2,317.7,213.4,346.9,266.9,346.9z"/>
		<path class="st0" d="M266.9,215c46.5,0,86.9,25.9,107.7,64c2.4-47.8-16.2-130.5-29.9-151.1l0,0C329.3,101.1,300.4,83,267.3,83
			c-0.1,0-0.3,0-0.4,0c-0.1,0-0.3,0-0.4,0c-33.1,0-62,18-77.4,44.8l0,0c-13.7,20.6-32.3,103.3-29.9,151.1
			C180,240.8,220.4,215,266.9,215z"/>
		<path class="st3" d="M372.5,276.5c-5,22.1-52.1,51.3-105.6,51.3s-100.6-29.2-105.6-51.3c-0.1-0.3-0.1-0.6-0.2-0.9
			c-0.6,1.1-1.3,2.2-1.9,3.3c0.3,6.2,1,11.8,2.1,16.7c5,22.1,52.1,51.3,105.6,51.3s100.6-29.2,105.6-51.3c1.1-4.8,1.7-10.5,2.1-16.7
			c-0.6-1.1-1.2-2.2-1.9-3.3C372.6,275.9,372.5,276.2,372.5,276.5z"/>
		<path class="st14" d="M266.9,105.6c-7.6,0-14.1-5.1-16.1-12c-0.5,4.9-0.7,8.6-0.7,10.2c0,9.3,7.5,16.8,16.8,16.8
			s16.8-7.5,16.8-16.8c0-1.7-0.2-5.3-0.7-10.2C280.9,100.5,274.5,105.6,266.9,105.6z"/>
		<path class="st15" d="M266.9,90.7c-6.4,0-12-3.6-14.9-8.9c-0.5,4.4-0.9,8.4-1.3,11.9c2.1,6.9,8.5,12,16.1,12s14.1-5.1,16.1-12
			c-0.3-3.4-0.7-7.5-1.3-11.9C278.9,87,273.3,90.7,266.9,90.7z"/>
		<path class="st16" d="M266.9,75.6c-5.4,0-10.2-2.6-13.3-6.5c-0.6,4.3-1.1,8.6-1.6,12.5c2.8,5.3,8.4,9,14.9,9c6.4,0,12-3.6,14.9-9
			c-0.5-4-1-8.2-1.6-12.5C277.1,73.1,272.3,75.6,266.9,75.6z"/>
		<path class="st6" d="M266.9,60.6c-4.3,0-8.3-1.7-11.3-4.4c-0.7,4.2-1.4,8.6-2,12.9c3.1,3.9,7.9,6.5,13.3,6.5s10.2-2.6,13.3-6.5
			c-0.6-4.3-1.3-8.6-2-12.9C275.2,58.9,271.2,60.6,266.9,60.6z"/>
		<path class="st17" d="M258.1,43.1c-0.9,4.1-1.7,8.5-2.5,13.1c3,2.7,6.9,4.4,11.3,4.4s8.3-1.7,11.3-4.4c-0.8-4.6-1.6-9-2.5-13.1
			c-2.6,1.6-5.5,2.5-8.8,2.5S260.7,44.7,258.1,43.1z"/>
		<path class="st18" d="M266.9,30.6c-1.8,0-3.5-0.3-5.1-0.8c-1.3,3.5-2.6,8.1-3.7,13.3c2.6,1.6,5.5,2.5,8.8,2.5s6.2-0.9,8.8-2.5
			c-1.2-5.2-2.4-9.8-3.7-13.3C270.3,30.3,268.6,30.6,266.9,30.6z"/>
	</g>
	<path class="st12" d="M271.9,29.8c-1.6-4.2-3.3-6.8-5.1-6.8c-1.8,0-3.5,2.6-5.1,6.8c1.6,0.5,3.3,0.8,5.1,0.8
		C268.6,30.6,270.3,30.3,271.9,29.8z"/>
	<path class="st12" d="M350.7,408.4c-0.6-6.8-1.6-13.2-2.8-19.2l-13.4,2.2c-1.1,0.2-2.1-0.4-2.8-1.4L319,370.6
		c-1.8-2.7-5.1-1.5-5.6,2.1l-3.7,25.2c-0.2,1.4-0.9,2.6-1.9,3.2l-17.5,10.2c-2.5,1.4-2.6,6.1-0.3,7.9l16.7,12.5
		c0.9,0.7,1.6,2,1.7,3.4l1.8,25.6c0.3,3.6,3.5,5.3,5.5,2.8l14-17.5c0.8-1,1.9-1.4,2.9-1.1l17.6,5.3c0.6-5.2,0.9-10.6,1.1-16.2
		l-4.5-12.9c-0.5-1.3-0.4-2.8,0.1-4.1L350.7,408.4z"/>
	<linearGradient id="SVGID_9_" gradientUnits="userSpaceOnUse" x1="238.217" y1="500.2246" x2="227.6648" y2="545.0716">
		<stop  offset="0" style="stop-color:#99CACF"/>
		<stop  offset="0.9956" style="stop-color:#99ABCF"/>
	</linearGradient>
	<path class="st19" d="M211.2,514.3c-2.9,0.9-5.1,2.1-6.8,3.4c3.9,7.1,7.4,11.4,9.3,12.2c6.6,2.8,45.4-2.4,48.1-4.4
		c0.5-0.3,0.8-2.1,0.9-4.9C251.9,517.6,223,510.4,211.2,514.3z"/>
	
		<linearGradient id="SVGID_10_" gradientUnits="userSpaceOnUse" x1="106.8042" y1="500.2246" x2="96.2519" y2="545.0716" gradientTransform="matrix(-1 0 0 1 403.3066 0)">
		<stop  offset="0" style="stop-color:#99CACF"/>
		<stop  offset="0.9956" style="stop-color:#99ABCF"/>
	</linearGradient>
	<path class="st20" d="M323.5,514.3c2.9,0.9,5.1,2.1,6.8,3.4c-3.9,7.1-7.4,11.4-9.3,12.2c-6.6,2.8-45.4-2.4-48.1-4.4
		c-0.5-0.3-0.8-2.1-0.9-4.9C282.8,517.6,311.7,510.4,323.5,514.3z"/>
	<path class="st17" d="M293.5,428.2l-6-9c-0.4-0.6-1-0.9-1.7-0.9l-10.8-0.2c-1.7,0-2.6-2-1.6-3.3l6.7-8.5c0.4-0.5,0.6-1.2,0.4-1.9
		l-3.2-10.3c-0.5-1.6,1.1-3.1,2.7-2.5l10.1,3.8c0.6,0.2,1.3,0.1,1.9-0.2l8.8-6.2c1.4-1,3.3,0.1,3.2,1.8l-0.5,10.8
		c0,0.7,0.3,1.3,0.8,1.7l8.6,6.5c1.4,1,1,3.2-0.7,3.6l-10.4,2.9c-0.6,0.2-1.2,0.7-1.4,1.3l-3.5,10.2
		C296.6,429.4,294.5,429.7,293.5,428.2z"/>
	<g>
		<g>
			<path class="st21" d="M126.3,138.5c-0.1-0.1-0.1-0.1-0.2-0.2c-0.3-0.3-1-0.3-1.3,0c-0.1,0.1-0.1,0.1-0.2,0.2
				c-0.6,0.7-0.3,1.9,0.8,1.9C126.6,140.4,126.9,139.2,126.3,138.5L126.3,138.5z"/>
		</g>
	</g>
	<g>
		<circle class="st22" cx="217" cy="168.7" r="38.4"/>
		<g>
			<defs>
				<circle id="SVGID_11_" cx="217" cy="168.7" r="32.4"/>
			</defs>
			<clipPath id="SVGID_12_">
				<use xlink:href="#SVGID_11_"  style="overflow:visible;"/>
			</clipPath>
			<path class="st23" d="M193.3,210.7c18.6-18.2,40-36.2,61.6-50.5c8.7-5.7,43.4-19.2,29.6-34.2c-2.5-2.7-6.8-3.7-10.3-2.7
				c-19.2,5.3-37.8,22-51.3,36.1c-14.6,15.2-23.4,31.1-31,50.5C191.5,210.7,192.8,211.2,193.3,210.7L193.3,210.7z"/>
			<path class="st23" d="M187.8,202.4c8.1-18.2,18.5-33.8,32.2-48.4c12.5-13.4,28.4-23.8,36.5-40.6c0.7-1.5-0.5-3.7-2.4-3.1
				c-18.4,6.2-30.9,22.3-42.1,37.6c-11.8,16-21.2,34.5-25.6,54C186.3,202.6,187.5,203.2,187.8,202.4L187.8,202.4z"/>
		</g>
		<circle class="st22" cx="316.7" cy="168.7" r="38.4"/>
		<g>
			<defs>
				<circle id="SVGID_13_" cx="316.7" cy="168.7" r="32.4"/>
			</defs>
			<clipPath id="SVGID_14_">
				<use xlink:href="#SVGID_13_"  style="overflow:visible;"/>
			</clipPath>
			<g class="st24">
				<g>
					<path class="st21" d="M276.6,212.2c17.1-16.5,36.8-30.2,55.5-44.8c9.2-7.1,18.5-14.1,27.9-21c9.3-6.7,19.8-13.8,24-24.9
						c1-2.6-1.6-5.9-4.3-5.7c-11.9,1-21.6,9.5-30.1,17.1c-8.9,8-17.7,16.1-26.2,24.4c-17.3,16.8-32.1,35.6-48.5,53.1
						C273.9,211.6,275.5,213.2,276.6,212.2L276.6,212.2z"/>
				</g>
			</g>
			<g class="st24">
				<g>
					<path class="st21" d="M284.9,190.6c23.6-24,39.2-54.6,60.4-80.4c0.7-0.8-0.4-1.9-1.2-1.2c-26,22-37.8,55.5-60.2,80.7
						C283.4,190.3,284.3,191.2,284.9,190.6L284.9,190.6z"/>
				</g>
			</g>
		</g>
		<path class="st25" d="M247.7,172.3c0-7.2,37.1-7.2,37.1,0"/>
	</g>
	<path class="st0" d="M267.4,281c-7.1,0-19.9-15.2-29.5-8.4c-9.6,6.8-6.7,29,29,29s38.9-25.7,31.4-30.7
		C290.8,265.8,276.3,281,267.4,281z"/>
	<g>
		<defs>
			<path id="SVGID_15_" d="M267.4,281c-7.1,0-19.9-15.2-29.5-8.4c-9.6,6.8-6.7,29,29,29s38.9-25.7,31.4-30.7
				C290.8,265.8,276.3,281,267.4,281z"/>
		</defs>
		<clipPath id="SVGID_16_">
			<use xlink:href="#SVGID_15_"  style="overflow:visible;"/>
		</clipPath>
		<g class="st26">
			<g>
				<path class="st22" d="M254.8,270.7c-1.2,11.6-1.4,23.8-1,35.5c0,0.9,1.3,0.8,1.3,0c1-11.7,1.4-23.8,0.7-35.5
					C255.8,270,254.9,270,254.8,270.7L254.8,270.7z"/>
			</g>
		</g>
		<g class="st26">
			<g>
				<path class="st22" d="M277.6,271.8c1,11.7,0.7,24.3,3.9,35.7c0.2,0.7,1.3,0.6,1.3-0.2c0.6-11.8-2.4-24.1-4.1-35.7
					C278.7,271,277.6,271.2,277.6,271.8L277.6,271.8z"/>
			</g>
		</g>
	</g>
	
		<ellipse transform="matrix(0.9005 -0.4348 0.4348 0.9005 -87.1276 117.7176)" class="st3" cx="213.7" cy="249.3" rx="20.7" ry="12.9"/>
	
		<ellipse transform="matrix(0.4348 -0.9005 0.9005 0.4348 -43.699 428.8794)" class="st3" cx="319.8" cy="249.3" rx="12.9" ry="20.7"/>
	<g class="st27">
		<g>
			<path class="st10" d="M182.9,447c-0.4-15.7,0.4-31.2,3.4-46.7c2.9-14.9,7.8-29.3,12.7-43.6c0.3-0.8-0.9-1.3-1.4-0.6
				c-16.3,26.3-20.9,60.9-16.2,91.1C181.5,448,182.9,447.8,182.9,447L182.9,447z"/>
		</g>
	</g>
</g>
</svg>
